
<svg version="1.1" id="Calque_3" xmlns="http://www.w3.org/2000/svg" xmlns:xlink="http://www.w3.org/1999/xlink" x="0px" y="0px"
	 viewBox="0 0 100 100" style="enable-background:new 0 0 100 100;" xml:space="preserve">
<style type="text/css">
	.st0{fill:#FF9115;}
</style>
<g>
	<path class="st0" d="M84.7,5.6H15.3c-5.2,0-9.5,4.2-9.5,9.5v69.4c0,5.2,4.2,9.5,9.5,9.5h69.4c5.2,0,9.5-4.2,9.5-9.5V15.1
		C94.2,9.9,89.9,5.6,84.7,5.6z M53.9,74.5c0,8.6-5,12.5-12.4,12.5C34.9,87,31,83.6,29,79.4l6.8-4.1c1.3,2.3,2.5,4.3,5.3,4.3
		c2.7,0,4.5-1.1,4.5-5.2V46.2h8.3L53.9,74.5L53.9,74.5z M73.6,87c-7.7,0-12.7-3.7-15.1-8.5l6.8-3.9c1.8,2.9,4.1,5,8.2,5
		c3.4,0,5.6-1.7,5.6-4.1c0-2.8-2.2-3.8-6.1-5.5l-2.1-0.9c-6-2.5-10-5.8-10-12.5c0-6.2,4.8-11,12.1-11c5.3,0,9.1,1.8,11.8,6.6
		l-6.5,4.1c-1.4-2.5-3-3.5-5.3-3.5c-2.4,0-4,1.5-4,3.5c0,2.5,1.5,3.5,5.1,5l2.1,0.9c7.1,3,11,6.1,11,13.1C87.3,82.9,81.4,87,73.6,87
		L73.6,87z"/>
</g>
</svg>
