
<svg version="1.1" id="Calque_2" xmlns="http://www.w3.org/2000/svg" xmlns:xlink="http://www.w3.org/1999/xlink" x="0px" y="0px"
	 viewBox="0 0 100 100" style="enable-background:new 0 0 100 100;" xml:space="preserve">
<style type="text/css">
	.st0{fill:#FF9115;}
</style>
<g>
	<path class="st0" d="M26.9,64.7c9.1,0.6,11,0.4,11,2.2c0,3.7-12.3,3.8-12.3,0.3C25.7,66.2,26.3,65.4,26.9,64.7z M32.1,42.8
		c-6.1,0-6.3,8.3-0.1,8.3C38.1,51.1,37.9,42.8,32.1,42.8L32.1,42.8z M92,17v66c0,5-4,9-9,9H17c-5,0-9-4-9-9V17c0-5,4-9,9-9h66
		C88,8,92,12,92,17z M49.5,30c0,2.7,1.6,4.3,4.3,4.3c2.8,0,4.3-1.6,4.3-4.3s-1.6-4.2-4.3-4.2C51,25.8,49.5,27.3,49.5,30z M45.4,38.6
		h-9.3c-4.7-1.2-15.3-0.9-15.3,8.8c0,3.5,1.8,6,4.1,7.1c-2.9,2.7-4.3,4-4.3,5.8c0,1.3,0.5,2.5,2.1,3.1C21,64.9,20,66.1,20,68.2
		c0,3.8,3.3,5.9,11.9,5.9c8.3,0,13.1-3.1,13.1-8.6c0-6.9-5.3-6.6-17.8-7.4l1.6-2.5c3.2,0.9,13.9,1.2,13.9-8c0-2.2-0.9-3.7-1.8-4.8
		l4.4-0.3L45.4,38.6z M61.2,59.2l-2.4-0.3c-0.7-0.1-0.8-0.2-0.8-1V38.1h-9.9L47.6,42c3,1,3.2,0.9,3.2,1.9v14c0,1.1-0.1,0.9-3.2,1.3
		v3.8h13.6L61.2,59.2z M80,61.1l-1.3-4.2c-7.7,2.9-7.1-2.3-7.1-3.1V42.3h7.1v-4.8H72c-0.5,0-0.4,0.5-0.4-7.2h-4.5
		c-0.5,5.2-2.2,7.3-6.4,7.8v4.2c3.8,0,3.7-0.2,3.7,0.5v12.5c0,5.4,2.1,7.7,7.8,7.7C75,63,78,62.1,80,61.1L80,61.1z"/>
</g>
</svg>
