<?xml version="1.0" encoding="utf-8"?>
<!-- Generator: Adobe Illustrator 23.0.0, SVG Export Plug-In . SVG Version: 6.00 Build 0)  -->
<svg version="1.1" xmlns="http://www.w3.org/2000/svg" xmlns:xlink="http://www.w3.org/1999/xlink" x="0px" y="0px"
	 viewBox="0 0 100 100" style="enable-background:new 0 0 100 100;" xml:space="preserve">
<style type="text/css">
	.st0{display:none;}
	.st1{display:inline;}
	.st2{fill:#020203;}
	.st3{fill:#FFFFFF;stroke:#020203;stroke-miterlimit:10;}
</style>
<g id="Calque_2" class="st0">
	<g class="st1">
		<path class="st2" d="M63.7,61.2c0,8.5-7.9,8.3-8.8,8.3H38.7V53.1h16.2C63.4,53.1,63.7,59.5,63.7,61.2z M53.6,46.6
			c0.1,0,7.7,0.2,7.7-7.3c0-3.1-0.7-7.2-7.7-7.2H38.7v14.4H53.6z M94.8,20.1v59.7c0,8.2-6.7,14.9-14.9,14.9H20.1
			c-8.2,0-14.9-6.7-14.9-14.9V20.1c0-8.2,6.7-14.9,14.9-14.9h59.7C88.1,5.2,94.8,11.9,94.8,20.1z M72.8,62.4
			c0-4.3-1.3-11.7-9.8-13.5v-0.1c4.6-2,7.5-5.6,7.5-11.1c0-1.4,0.4-13-15.5-13H29.6v52.3c25.6,0,28,0.3,32.7-1.1
			C65.1,74.9,72.8,72.2,72.8,62.4z"/>
	</g>
</g>
<g id="Calque_3">
	<rect class="st2" width="100" height="100"/>
	<g>
		<path class="st3" d="M62.2,5.2h33.1v88.3L62.2,5.2z M39.1,5.2H6v88.3L39.1,5.2z M50.7,37.9l20.8,55.7H57.4l-6-17.7H36.1L50.7,37.9
			z"/>
	</g>
</g>
</svg>
