<?xml version="1.0" encoding="utf-8"?>
<!-- Generator: Adobe Illustrator 23.0.0, SVG Export Plug-In . SVG Version: 6.00 Build 0)  -->
<svg version="1.1" id="Calque_3" xmlns="http://www.w3.org/2000/svg" xmlns:xlink="http://www.w3.org/1999/xlink" x="0px" y="0px"
	 viewBox="0 0 100 100" style="enable-background:new 0 0 100 100;" xml:space="preserve">
<style type="text/css">
	.st0{fill:#020203;}
</style>
<g>
	<path class="st0" d="M78.9,35.2c-1-0.3-1.9-0.7-2.9-1c0.2-0.7,0.3-1.4,0.4-2.1C78.7,21,77.2,12,72.4,9.1C67.7,6.3,60,9.2,52.3,16.3
		c-0.8,0.7-1.5,1.4-2.2,2.2c-0.5-0.5-1-1-1.5-1.4C40.5,9.4,32.3,6.2,27.5,9.2c-4.7,2.8-6.1,11.3-4.1,21.9c0.2,1,0.4,2.1,0.7,3.1
		c-1.1,0.3-2.3,0.7-3.3,1.1c-9.5,3.5-16.3,8.9-16.3,14.6c0,5.8,7.3,11.7,17.2,15.3c0.8,0.3,1.6,0.6,2.4,0.8
		c-0.3,1.1-0.5,2.2-0.7,3.4c-1.9,10.4-0.4,18.6,4.3,21.5c4.8,2.9,12.9-0.1,20.8-7.3c0.6-0.6,1.2-1.2,1.9-1.8
		c0.8,0.8,1.6,1.6,2.4,2.3c7.6,6.9,15.2,9.7,19.8,6.9c4.8-2.9,6.4-11.8,4.3-22.6c-0.2-0.8-0.3-1.7-0.5-2.5c0.6-0.2,1.1-0.4,1.7-0.5
		c10.3-3.6,17.7-9.4,17.7-15.3C95.6,44.2,88.6,38.7,78.9,35.2L78.9,35.2z M54.8,19.3c6.6-6.1,12.8-8.5,15.6-6.7
		c3,1.8,4.2,9.2,2.3,18.8c-0.1,0.6-0.2,1.3-0.4,1.9c-4-0.9-8-1.6-12-2c-2.3-3.5-4.8-6.8-7.6-10C53.4,20.6,54.1,20,54.8,19.3z
		 M34.2,59.6c0.9,1.6,1.8,3.3,2.8,4.9c-2.8-0.3-5.5-0.8-8.3-1.4c0.8-2.7,1.8-5.5,2.9-8.3C32.4,56.4,33.3,58,34.2,59.6L34.2,59.6z
		 M28.8,37.1c2.6-0.6,5.3-1.1,8.1-1.5c-0.9,1.6-1.9,3.1-2.7,4.8c-0.9,1.6-1.7,3.2-2.5,4.9C30.5,42.5,29.6,39.7,28.8,37.1L28.8,37.1z
		 M33.7,50c1.2-2.6,2.5-5.1,3.8-7.6c1.4-2.5,2.8-4.9,4.3-7.3c2.7-0.2,5.4-0.3,8.2-0.3s5.5,0.1,8.2,0.3c1.5,2.4,3,4.8,4.3,7.3
		s2.7,5,3.9,7.6c-1.2,2.6-2.5,5.1-3.9,7.6c-1.4,2.5-2.8,4.9-4.3,7.3c-2.7,0.2-5.4,0.3-8.2,0.3s-5.5-0.1-8.1-0.3
		c-1.6-2.4-3-4.8-4.4-7.3S34.8,52.6,33.7,50L33.7,50z M65.8,59.6c0.9-1.6,1.8-3.3,2.6-5c1.1,2.7,2.1,5.5,3,8.3
		c-2.8,0.7-5.6,1.2-8.4,1.5C64,62.8,65,61.2,65.8,59.6L65.8,59.6z M68.4,45.3c-0.8-1.6-1.7-3.3-2.6-4.9c-0.9-1.6-1.8-3.2-2.7-4.7
		c2.9,0.4,5.6,0.9,8.2,1.5C70.5,39.9,69.5,42.6,68.4,45.3z M50,24.2c1.9,2.1,3.6,4.4,5.3,6.7c-3.5-0.2-7.1-0.2-10.6,0
		C46.5,28.5,48.3,26.2,50,24.2z M29.4,12.7c3-1.8,9.6,0.8,16.7,7.3c0.4,0.4,0.9,0.9,1.4,1.3c-2.8,3.1-5.3,6.5-7.6,10
		c-4,0.4-8,1-12,1.9c-0.2-1-0.4-1.9-0.6-2.9C25.4,21.2,26.5,14.4,29.4,12.7L29.4,12.7z M25,62.1c-0.7-0.2-1.5-0.5-2.2-0.7
		c-3.8-1.3-8.1-3.2-11.2-5.8c-1.8-1.3-3-3.3-3.4-5.6c0-3.4,5.6-7.8,13.8-10.8c1-0.4,2.1-0.7,3.1-1c1.2,4.1,2.7,8.1,4.4,11.9
		C27.7,53.9,26.2,58,25,62.1z M45.8,80.5c-2.9,2.8-6.3,5.1-10.1,6.6c-2,1-4.3,1.1-6.3,0.2c-2.8-1.7-4-8.3-2.4-17.2
		c0.2-1,0.4-2.1,0.7-3.1c4,0.9,8,1.5,12.1,1.8c2.4,3.5,4.9,6.9,7.7,10C46.9,79.4,46.3,79.9,45.8,80.5L45.8,80.5z M50.1,75.9
		c-1.8-2.1-3.6-4.3-5.4-6.8c1.7,0.1,3.5,0.1,5.3,0.1c1.8,0,3.6,0,5.4-0.1C53.8,71.5,52,73.7,50.1,75.9z M73.4,81.5
		c-0.2,2.3-1.2,4.4-2.9,5.9c-2.8,1.7-8.9-0.5-15.4-6.4c-0.7-0.7-1.5-1.4-2.3-2.2c2.7-3.2,5.2-6.5,7.5-10c4.1-0.4,8.1-1,12.2-2
		c0.2,0.8,0.3,1.5,0.5,2.3C73.9,73.2,74,77.4,73.4,81.5L73.4,81.5z M76.7,61.4c-0.5,0.2-1,0.3-1.5,0.5c-1.2-4.1-2.8-8.1-4.5-12
		c1.7-3.8,3.2-7.8,4.4-11.8c0.9,0.3,1.8,0.6,2.7,0.9c8.3,3,14.1,7.5,14.1,10.9C91.8,53.6,85.6,58.3,76.7,61.4z M50,58.6
		c4.5,0,8.2-3.8,8.2-8.6s-3.7-8.6-8.2-8.6s-8.2,3.8-8.2,8.6S45.5,58.6,50,58.6L50,58.6z"/>
</g>
</svg>
