<?xml version="1.0" encoding="utf-8"?>
<!-- Generator: Adobe Illustrator 23.0.0, SVG Export Plug-In . SVG Version: 6.00 Build 0)  -->
<svg version="1.1" id="Calque_3" xmlns="http://www.w3.org/2000/svg" xmlns:xlink="http://www.w3.org/1999/xlink" x="0px" y="0px"
	 viewBox="0 0 100 100" style="enable-background:new 0 0 100 100;" xml:space="preserve">
<style type="text/css">
	.st0{fill:#020203;}
</style>
<g>
	<path class="st0" d="M47.5,67.4C47.4,67.5,47.4,67.5,47.5,67.4z M82.7,55.1c-2.8,0-5.7,0.7-8.2,1.9c-0.8-1.7-1.7-3.2-1.8-4.3
		c-0.2-1.3-0.4-2.1-0.2-3.6c0.2-1.5,1.1-3.7,1.1-3.9c0-0.2-0.2-0.9-2-0.9s-3.4,0.4-3.6,0.8c-0.3,0.9-0.6,1.8-0.8,2.7
		c-0.3,1.7-3.7,7.6-5.5,10.7c-0.6-1.2-1.1-2.3-1.3-3.1c-0.2-1.3-0.4-2.1-0.2-3.6c0.2-1.5,1.1-3.7,1.1-3.9s-0.2-0.9-2-0.9
		c-1.8,0-3.4,0.4-3.6,0.8s-0.4,1.6-0.8,2.7c-0.4,1.1-4.8,10.9-6,13.5c-0.6,1.3-1.1,2.3-1.5,3.1c-0.1,0.1-0.1,0.2-0.1,0.2
		c0-0.1,0.1-0.1,0.1-0.1c-0.3,0.6-0.5,0.9-0.5,0.9v0c-0.2,0.5-0.5,0.9-0.6,0.9c-0.1,0-0.3-1.2,0-2.8c0.7-3.4,2.2-8.7,2.2-8.9
		c0-0.1,0.3-1-1-1.5c-1.3-0.5-1.8,0.3-1.9,0.3c-0.1,0-0.2,0.3-0.2,0.3s1.4-6-2.7-6c-2.6,0-6.2,2.9-8,5.4c-1.1,0.6-3.5,1.9-6.1,3.3
		c-1,0.5-2,1.1-2.9,1.6c-0.1-0.1-0.1-0.1-0.2-0.2c-5.1-5.4-14.4-9.2-14-16.5c0.1-2.6,1.1-9.6,18-18c13.9-6.9,25-5,26.9-0.8
		c2.7,6-5.9,17.2-20.3,18.8c-5.5,0.6-8.4-1.5-9.1-2.3c-0.8-0.8-0.9-0.9-1.1-0.7c-0.5,0.3-0.2,1,0,1.4c0.4,1.1,2.2,3.1,5.2,4.1
		c2.6,0.9,9.1,1.3,16.9-1.7c8.7-3.4,15.6-12.8,13.6-20.6c-2-8-15.3-10.6-27.8-6.2c-7.5,2.6-15.5,6.8-21.3,12.2
		c-6.9,6.5-8,12.1-7.5,14.4c1.6,8.3,13.1,13.8,17.7,17.8c-0.2,0.1-0.4,0.2-0.6,0.4c-2.3,1.1-11.1,5.7-13.3,10.6
		C6.2,79,9,83,10.9,83.5c5.9,1.6,12-1.3,15.2-6.2c3.3-4.9,2.9-11.2,1.4-14.1c0,0,0-0.1-0.1-0.1c0.6-0.4,1.2-0.7,1.8-1.1
		c1.2-0.7,2.3-1.3,3.3-1.9c-0.6,1.5-1,3.4-1.2,6c-0.3,3.1,1,7.1,2.7,8.7c0.7,0.7,1.6,0.7,2.2,0.7c2,0,2.8-1.6,3.8-3.5
		c1.2-2.3,2.3-5.1,2.3-5.1s-1.3,7.4,2.3,7.4c1.3,0,2.7-1.7,3.3-2.6v0c0,0,0-0.1,0.1-0.2c0.1-0.2,0.2-0.3,0.2-0.3v0
		c0.5-0.9,1.7-3,3.5-6.5c2.3-4.5,4.5-10.1,4.5-10.1c0.2,1.2,0.5,2.5,0.9,3.7c0.4,1.3,1.2,2.8,1.9,4.2c-0.5,0.7-0.9,1.2-0.9,1.2
		c0,0,0,0,0,0c-0.4,0.6-0.9,1.2-1.4,1.8c-1.8,2.2-4,4.6-4.2,5.3c-0.3,0.8-0.3,1.5,0.4,1.9c0.5,0.4,1.3,0.4,2.2,0.4
		c1.6-0.1,2.8-0.5,3.3-0.8c1-0.4,2-0.9,2.9-1.5c1.8-1.3,2.8-3.2,2.7-5.6c-0.1-1.4-0.5-2.7-1-4c0.2-0.2,0.3-0.5,0.5-0.7
		c2.8-4.1,5-8.6,5-8.6c0.2,1.2,0.5,2.5,0.9,3.7c0.3,1.1,1,2.4,1.6,3.6c-2.6,2.1-4.3,4.6-4.8,6.2c-1,3-0.2,4.4,1.3,4.7
		c0.7,0.1,1.7-0.2,2.4-0.5c1.1-0.4,2.1-0.9,3.1-1.6c1.8-1.3,3.5-3.1,3.4-5.6c0-1.1-0.4-2.2-0.8-3.3c2.2-0.9,5.1-1.4,8.8-1
		c7.9,0.9,9.4,5.8,9.1,7.9c-0.3,2.1-2,3.2-2.5,3.5s-0.7,0.5-0.7,0.7c0.1,0.4,0.3,0.4,0.8,0.3c0.7-0.1,4.1-1.7,4.3-5.5
		C95.5,60.3,90.9,55,82.7,55.1L82.7,55.1z M22,75.6c-2.6,2.8-6.3,3.9-7.8,3c-1.7-1-1-5.2,2.2-8.2c2-1.8,4.5-3.5,6.1-4.6
		c0.4-0.2,0.9-0.6,1.6-1c0.1-0.1,0.2-0.1,0.2-0.1c0.1-0.1,0.3-0.2,0.4-0.2C25.9,68.8,24.7,72.6,22,75.6L22,75.6z M41,62.6
		c-0.9,2.2-2.8,7.9-4,7.6c-1-0.3-1.6-4.6-0.2-8.8c0.7-2.1,2.2-4.7,3.1-5.7c1.4-1.6,3-2.1,3.4-1.5C43.8,55.1,41.6,61.2,41,62.6
		L41,62.6z M56.7,70.1c-0.4,0.2-0.7,0.3-0.9,0.2C55.7,70.3,56,70,56,70s2-2.1,2.7-3.1c0.5-0.6,1-1.2,1.5-2c0,0.1,0,0.1,0,0.2
		C60.2,67.7,57.8,69.4,56.7,70.1L56.7,70.1z M68.8,67.4c-0.3-0.2-0.2-0.9,0.7-2.9c0.4-0.8,1.2-2.2,2.7-3.5c0.2,0.5,0.3,1,0.3,1.5
		C72.5,65.7,70.2,66.9,68.8,67.4L68.8,67.4z"/>
</g>
</svg>
