<?xml version="1.0" encoding="utf-8"?>
<!-- Generator: Adobe Illustrator 23.0.0, SVG Export Plug-In . SVG Version: 6.00 Build 0)  -->
<svg version="1.1" xmlns="http://www.w3.org/2000/svg" xmlns:xlink="http://www.w3.org/1999/xlink" x="0px" y="0px"
	 viewBox="0 0 1200 700" style="enable-background:new 0 0 1200 700;" xml:space="preserve">
<style type="text/css">
	.st0{fill:#22292B;}
	.st1{fill:#131C1E;}
	.st2{fill:none;stroke:#FFFFFF;stroke-width:2;stroke-miterlimit:10;}
	.st3{fill:none;stroke:#FFFFFF;stroke-width:2;stroke-linejoin:round;stroke-miterlimit:10;}
</style>
<g id="Background">
	<rect x="0.2" y="0.6" class="st0" width="1200" height="700"/>
</g>
<g id="Potion">
	<polygon class="st1" points="808.5,550.8 808.5,441.7 834,441.7 834,419.8 857.6,379.7 860.1,380.1 889.2,415.2 889.2,427.8 
		896.3,434.1 896.3,548 829.1,547.9 817.2,551.7 808.5,551.8 	"/>
</g>
<g id="History">
	<polygon class="st1" points="524.1,294.8 579.4,304.2 579.4,264.5 582.7,264.5 522.4,34.4 460.3,266.6 464,265.9 464.5,303.7 
		471,302.3 473.2,299.1 475,302.1 	"/>
</g>
<g id="Defense">
	<polygon class="st1" points="256.5,554.5 420.4,555.4 420.4,530.4 441.3,497 458.4,527.1 459.3,468.4 466,432.7 464.5,370.1 
		395.4,370.1 385.8,373.9 375.9,395.2 357.3,395.2 353.1,373.3 292.6,373.3 260.6,418.1 256.5,418.1 	"/>
</g>
<g id="Trap">
	<path class="st1" d="M616.3,616.8l-16.3-4.3l-23.9,28.9l2.4,2.4l0,48.3l33,6.1h14c0,0-2-12.4-1.9-20.6s9.2-16,11.9-16.5
		c2.7-0.5,8.2,1.1,9.7,7.3c1.5,6.3,0.7,27.2-1.4,28.6s11.1,0.5,11.1,0.5l0.3-48.5l3.2,0.7l-13.3-16.2l-0.5-33h3.6l-18.1-62.7
		l-18.1,62.6l4.6,0.1L616.3,616.8z"/>
</g>
<g id="Castle_lines">
	<g id="Batiment_1_1_">
		<g id="Batiment">
			<path class="st2" d="M420.9,531.7h37.5v43.4c0,0.6-0.4,1-1,1h-35.5c-0.6,0-1-0.4-1-1v-15.9V531.7z"/>
			<path class="st2" d="M483,410.7h21.3c0.4,0,0.8,0.3,0.9,0.7l18.4,50.2c0,0.1,0.1,0.2,0.1,0.3v69.8h-63.7l-18.6-34.1
				c-0.4-0.7-1.4-0.7-1.8,0l-20.1,32.7c-0.4,0.7,0.1,1.5,0.9,1.5h0.4"/>
			<polyline class="st2" points="505,410.7 495.1,468.4 458.4,468.1 			"/>
			<line class="st2" x1="495.1" y1="468.4" x2="495.1" y2="531.7"/>
			<path class="st2" d="M458.4,528.3v-60.2l12.1-56.7c0.1-0.5,0.5-0.8,1-0.8H483v-72.8h-18.4v35.4l-13.8,45.8H256.5v132.8
				c0,1.1,0.9,2,2,2l162.4,0.6"/>
			<path class="st2" d="M464.6,370.1H393c-0.1,0-0.3,0-0.4,0.1l-6.6,3c-0.2,0.1-0.4,0.3-0.5,0.5l-9.5,20.8c-0.3,0.7-1,1.2-1.8,1.2
				h-15.4c-1,0-1.8-0.7-2-1.7l-2.8-20.6h-61.8c-0.6,0-1-0.4-1-1v-26.2h-16.9V398"/>
			<polyline class="st2" points="392.8,370.1 392.8,341.5 353.6,341.5 354,373.3 			"/>
			<path class="st2" d="M274.4,346.1h-4.1c-0.7,0-1.2-0.7-0.9-1.4l12.8-32.4c0.3-0.9,1.6-0.8,1.9,0l11.4,32.4
				c0.2,0.7-0.3,1.3-0.9,1.3h-3.7"/>
			<path class="st2" d="M353.6,341.5v-58c0-0.1,0-0.3,0.1-0.4l19.2-44.9c0.3-0.8,1.5-0.8,1.8,0l18,43.1c0.1,0.1,0.1,0.3,0.1,0.4
				v59.8"/>
			<path class="st2" d="M464.6,337.9h-4.3c-0.7,0-1.2-0.7-0.9-1.3l12.9-36.8c0.3-0.9,1.6-0.9,1.9,0l12.9,36.8
				c0.2,0.7-0.3,1.3-0.9,1.3h-4.7"/>
			<line class="st2" x1="450.8" y1="419.1" x2="450.8" y2="514.6"/>
			<line class="st2" x1="464.6" y1="373.3" x2="464.6" y2="439.4"/>
			<line class="st2" x1="291.2" y1="373.3" x2="260" y2="419.1"/>
		</g>
	</g>
	<g id="Major_tour">
		<g id="Grosse_Tour">
			<polyline class="st2" points="475,302.1 523.7,294.8 579.6,304.4 			"/>
			<path class="st2" d="M523.7,531.7h48V307.2c0-0.5,0.3-0.9,0.7-1l7.1-1.8v-39.8L525.8,253l-61.2,12.9v37.8l5.9-0.9"/>
			<path class="st2" d="M464.6,265.9l-3,0.7c-0.7,0.2-1.4-0.5-1.2-1.2l60.7-230.7c0.3-1,1.7-1,1.9,0l59.8,229.1
				c0.2,0.7-0.5,1.4-1.2,1.2l-2.1-0.5"/>
			<path class="st2" d="M478.2,197.6v-68.3c0-1.1,0.9-2,2-2h16.5"/>
			<path class="st2" d="M497.1,125.9l-8.7-30.9c-0.3-0.9-1.6-1-1.9-0.1l-11,31.5c-0.2,0.7,0.4,1.4,1.1,1.3l3.6-0.6"/>
		</g>
		<line class="st2" x1="466.5" y1="303.4" x2="466.5" y2="316.2"/>
	</g>
	<g id="Small_house">
		<g>
			<path class="st2" d="M663.6,477.4v76.5"/>
			<path class="st2" d="M657.9,476.4"/>
			<path class="st2" d="M571.7,423.7h13.2c0.4,0,0.8,0.3,0.9,0.7l1.6,4.3c0.1,0.4,0.5,0.7,0.9,0.7h5.4c0.6,0,1-0.4,1-1v-3.6
				c0-0.6,0.4-1,1-1h34.3l3,8.3c0.1,0.4,0.5,0.7,0.9,0.7h13.4c0.4,0,0.8,0.3,0.9,0.6l17,42.3c0.3,0.7-0.2,1.4-0.9,1.4h-83.7
				c-0.7,0-1.4-0.4-1.8-1.1l-7.3-14.1"/>
			<path class="st2" d="M583,423.7V409c0-0.6,0.1-1.2,0.3-1.8c0.7-1.8,2.6-5.8,5.6-5.8c2.8,0,4.6,3.8,5.3,5.5
				c0.2,0.6,0.3,1.2,0.4,1.8l0.3,15.9"/>
			<polyline class="st2" points="630.1,423.7 630.1,413.1 647.9,413.1 647.9,432.7 			"/>
			<path class="st2" d="M629.5,413.1H628c-0.7,0-1.2-0.7-0.9-1.4l10.6-30.7c0.3-0.9,1.6-0.9,1.9,0l10.6,30.7
				c0.2,0.7-0.3,1.3-0.9,1.3h-1.3"/>
		</g>
		<line class="st2" x1="577.6" y1="531.7" x2="577.6" y2="472.8"/>
	</g>
	<g id="Arc_1_">
		<g id="Arc">
			<path class="st2" d="M842.4,545l0-21.9c0-1.1,0.3-2.1,0.8-3.1c1.2-2.1,4-5.3,9.5-5.4c5.6-0.1,9.4,3.1,11.2,5.2
				c0.8,0.9,1.3,2.1,1.2,3.4l0,21.6"/>
			<path class="st2" d="M896.8,441h-13.3c-1.1,0-2-0.9-2-2v-19.4c0-0.4-0.1-0.7-0.3-1l-22.8-38.4c-0.4-0.7-1.3-0.6-1.7,0l-22.4,39.4
				c-0.2,0.3-0.3,0.6-0.3,1l-0.1,18.5c0,1.1-0.9,2-2,2h-22.4c-0.6,0-1,0.4-1,1v102.3"/>
			<path class="st2" d="M810.9,441l3.5-4.6c0.3-0.3,0.4-0.8,0.4-1.2v-21.6h-64.3V436c0,0.5,0.2,0.9,0.5,1.3l6.9,8
				c0.3,0.4,0.5,0.8,0.5,1.3v68.2c0,1.1-0.9,2-2,2h-50.8c-1.1,0-2-0.9-2-2v-27c0-0.4,0.1-0.8,0.4-1.2l7-8.8c0.3-0.3,1.1-1.1,1.1-1.6
				l-0.3-18.7h-53.7"/>
			<path class="st2" d="M710.8,477.9l-0.1,15.3c0,1.7,1.3,3,3,3h8c1.7,0,3-1.3,3-3v-86.1h-14v29.4"/>
			<path class="st2" d="M709.6,407.1h-2.8c-0.6,0-1.1-0.6-1-1.2l11-46.6c0.2-1,1.7-1,1.9,0l10.9,46.6c0.1,0.6-0.3,1.2-1,1.2h-3.8"/>
			<path class="st2" d="M649.4,435.9l32.6-104.2c0.3-1,1.7-0.9,1.9,0l31.7,124.5c0.2,0.6-0.3,1.2-1,1.2h-3.2"/>
			<path class="st2" d="M750.4,413.6h-1.9c-0.7,0-1.1-0.6-1-1.3l34-119.9c0.3-1,1.6-1,1.9,0l34,119.9c0.2,0.6-0.3,1.3-1,1.3h-1.8"/>
			<path class="st2" d="M817.2,410.9l0.4-97.2c0-0.5,0.1-1,0.2-1.5l11.1-35.5c0.3-1,1.7-0.9,1.9,0l10,36.1c0.1,0.4,0.2,0.9,0.2,1.3
				v93.1"/>
			<path class="st2" d="M857.4,379.7l2.6,0.3c0.3,0,0.5,0.2,0.7,0.4l29,35.8"/>
			<line class="st2" x1="703.5" y1="514.8" x2="703.5" y2="553.2"/>
			<line class="st2" x1="758.3" y1="514.8" x2="758.3" y2="552.5"/>
			<line class="st2" x1="704.2" y1="527.1" x2="758.3" y2="527"/>
		</g>
		<path class="st2" d="M814.8,425.7l2-1.5c0.2-0.2,0.4-0.5,0.4-0.8l0-9.6"/>
	</g>
	<g id="Right_towers">
		<g>
			<path class="st2" d="M957.4,553.9h33.4c0.6,0,1-0.4,1-1V417.4h-28.1"/>
			<path class="st2" d="M991.8,417.4l-9.7-131.6l-10-43.6c-0.2-1-1.7-1-1.9,0l-11,45.9l-2.7,73.9"/>
			<path class="st2" d="M571.7,531.7h23.8l46.7-3.2c0.6,0,1.1,0.4,1.1,1l-0.1,23.5c0,0.6,0.4,1,1,1l173.3-2.2l12.1-3.8l67.3,0.1V435
				c0-0.6-0.3-1.2-0.7-1.6l-5.7-4.6c-0.5-0.4-0.7-1-0.7-1.6v-31.4h74v30.6c0,0.5-0.2,1-0.5,1.3l-5.3,6c-0.3,0.4-0.5,0.8-0.5,1.3
				v118.7v18.4c0,0.6-0.4,1-1,1h-58.6c-0.6,0-1-0.4-1-1V548"/>
			<path class="st2" d="M889.7,395.9h-0.9c-0.7,0-1.1-0.6-1-1.3L924.6,262c0.3-1,1.7-1,1.9,0l39.7,132.6c0.2,0.6-0.3,1.3-1,1.3h-1.6
				"/>
			<path class="st2" d="M420.9,573.3c-1.4,0.2-186.3-0.7-207.6-0.8c-1.1,0-2.1-0.1-2.1-1.2l0.1-16.5c0-0.6,0.4-1,1-1h46.2"/>
			<polyline class="st3" points="458.4,573.3 594.8,573.6 619.7,569.9 			"/>
			<line class="st2" x1="595.6" y1="531.7" x2="594.8" y2="573.6"/>
			<polyline class="st2" points="642.9,566.5 817.6,564.4 831,559.5 896.8,559.3 			"/>
			<polyline class="st3" points="639.2,567 642.9,566.5 643.2,551.5 			"/>
		</g>
	</g>
	<g id="Construc">
		<path class="st2" d="M991.8,553.9c0,0,11.2,8.1,11.2,9c0,0.9,0.7,13.2,1.7,14.9c0.8,1.3,5,5.6,6.6,7.2c0.4,0.4,0.6,0.9,0.6,1.4
			v23.5c0,0.5,0.2,1.1,0.6,1.4l11.3,11c0.6,0.6,0.3,1.5-0.5,1.7l-34.2,7.1l-24.3,2.3c-0.7,0.1-1.4,0.4-1.9,0.9l-14.2,14.5
			c-0.6,0.6-1.3,0.9-2.1,0.9h-35.2c-0.2,0-0.4,0-0.7-0.1l-33.7-7.6l-23.2-8.1c-0.8-0.3-1.6-0.3-2.5-0.1l-26,7.7
			c-0.3,0.1-0.5,0.1-0.8,0.1c-3.4,0.1-28.3,0.7-30.2,0.7h-46.5c-0.2,0-0.5,0-0.7,0.1c-3.3,0.8-28.4,6.9-31.4,7.2
			c-2.6,0.2-24.7,2.1-26.3,4.5c-1.4,2.3-9.7,18-11.6,21.3c-0.2,0.4-0.6,0.7-1,0.9l-21.7,8.9"/>
		<path class="st2" d="M577.6,689.2h-33.7c-0.6,0-1.2-0.2-1.7-0.5c-2.8-1.9-12.7-8.2-20.2-8.7c-8.7-0.5-34.9,0-34.9,0l-59.9-2.5
			c-0.1,0-0.3,0-0.4-0.1l-33.7-8.6c-0.2-0.1-0.4-0.1-0.6-0.1l-38.7,2.5c-0.1,0-0.3,0-0.4,0c-2.8-0.2-34.2-2.5-37.4-2.5
			c-3.2,0-41.6,2.2-46.3,2.5c-0.3,0-0.6,0-1-0.1c-3.1-0.8-20.4-5.5-25-6.5c-4.3-0.9-18.6-7.6-23.1-9.8c-0.9-0.4-1.5-1.2-1.7-2.2
			l-5.7-32.3c-0.1-0.6,0-1.1,0.2-1.7l11.2-27.1c0.2-0.4,0.2-0.8,0.1-1.2l-3.5-16.9"/>
	</g>
	<g id="Cotage_1_">
		<g id="Cotage">
			<path class="st3" d="M645.3,633.7v-33.2h-28.9l0.6,35.1"/>
			<path class="st3" d="M616.3,600.5h-3.2c-0.7,0-1.1-0.6-1-1.3l17-60.7c0.3-1,1.6-1,1.9,0l17.2,60.7c0.2,0.6-0.3,1.3-1,1.3h-2.1"/>
			<path class="st2" d="M616.3,616.8l-16.7-3.9c-0.8-0.2-1.6,0.1-2,0.7l-21.6,28c-0.4,0.6-0.1,1.3,0.5,1.5l35.2,11
				c0.3,0.1,0.5,0.1,0.8-0.1c2.5-1.3,17.7-9.2,23.6-9.7c5.4-0.4,21.2,5.3,21.2,5.3c1,0.2,1.7-1,1-1.7l-20.6-22.2
				c-0.8-0.8-2.3-1.4-4,0.5l-21.6,27.4"/>
			<polyline class="st3" points="578.6,643.8 578.6,692.4 612.1,698.8 612.1,654.2 			"/>
			<path class="st3" d="M612.1,698.8l12.7-0.3c0.6,0,1.1-0.6,1-1.2c-0.7-2.8-2.4-10.1-2.3-18.7c0.1-12.3,7.4-17.2,13.2-17.2
				c6.6,0,10,7,9.8,17.1c-0.2,11.6-2.2,14.8-3,18.2c-0.2,0.6,0.3,1.2,1,1.2H655l0.3-48.2"/>
		</g>
	</g>
</g>
</svg>
