
<svg version="1.1" xmlns="http://www.w3.org/2000/svg" xmlns:xlink="http://www.w3.org/1999/xlink" x="0px" y="0px"
	 viewBox="0 0 1200 700" xml:space="preserve">

<style type="text/css">
	.st6{fill:none;stroke:#FFFFFF;stroke-width:2;stroke-miterlimit:10;}
	.st7{fill:none;stroke:#FFFFFF;stroke-width:2;stroke-linejoin:round;stroke-miterlimit:10;}
</style>


<g>
	<path class="border-fill" d="M138.2,559.3l4.8,18.4L129.2,606l7.5,34.9l29.8,10.6l29.1,6.3l57.2-2.3l44.9,2.5l47.7-2.8l41.1,9.2l72.3,1.9
		l41.7,0.3c0,0,19.8,4.1,24.5,9.3c9.1-0.1,43.4,0,43.4,0l54-1.7c0,0-0.5-11.5,0.5-14.7c1-3.2,8.7-12.4,14.2-11.7
		c5.5,0.8,13.8,4.1,13.5,16.9c-0.3,12.9,11.1,6.6,11.1,6.6l26.6-9.2l14.6-22.3c0,0,25-2,31.8-3.7s37.1-7.3,37.1-7.3l93.6-0.2
		l32.5-8.5l29.5,8.8l40.6,7.1l44.4-0.3l19-15.5l31.6-2.8l40.5-7.8l-14.6-13l-0.3-24.8l-8.7-7.9l-1.8-14.6l-13.1-9l-41.3-0.4l0,19.8
		h-72.9l-0.3-14.3l-79.5,0.9l-17.1,5.1l-212.9,2l-10.8-28.8l-11.8,31.7l-30.8,4L424,560.2v2.5h-45.1l-0.6-2.8L138.2,559.3z"/>
</g>
<g >
	<path class="castle-fill" d="M126.7,559.9h252.2v2.9H424v-2.9h163.6l31.7-3.4l11.1-32.1l10.9,29.2l214-2.4l17.3-5.4h78.5l-0.1,12.9
		l73.5,1.1l-0.7-19.6h40.9L1066,404l-12.4-131.7c0,0-11.9-44.3-12.9-44.3c-1,0.1-14.6,46.2-14.6,46.2l-3.7,71.9
		c0,0-35.1-98.3-36.4-98.2c-1.4,0-45.7,134.6-45.7,134.6l2.3-0.1l-0.1,19.5L907,366.3l-3.8,0l-19,27.3l-0.4-93.5
		c0,0-12.6-37.5-13.6-37.4c-1,0-14.5,37.1-14.5,37.1l-0.9,94.2c0,0-40.3-115.8-41.1-115.8s-42.3,121.2-42.3,121.2l3.2,0.9l0.1,22.3
		l9.6,10.2l-0.3,70.1l-65.6-0.3l0-28.7l8.7-9.2c0,0-0.4,17.4,1.4,17.7c1.8,0.3,13.7,1.5,14.7-0.4c1-1.9,1-88.2,1-88.2s4.6,0.8,5.6,0
		c1-0.8-13.1-49-14.3-48.6S720,392,721.4,392.8s5.9,0.9,5.9,0.9l-0.4,27.4c0,0-31.7-103.7-32.6-103.5
		c-0.9,0.2-40.4,103.7-40.4,103.7l-2.2-2.5l0.1-19.1l2.6-0.9L640.6,367c0,0-15.1,32.3-14,32.7s3.8,0.6,3.8,0.6l-0.1,9.8l-42.3-0.1
		v-15.3c0,0-3.4-6.7-6.8-7.1s-7.5,7.2-7.5,7.2v15.6l-13.6-0.1l0.3-117.1l9.3-2.4v-39.7l3.8,0c0,0-70.5-231.3-72.7-230.6
		c-2.2,0.8-30.3,92-30.3,92s-10.8-32-11.5-31.6c-0.7,0.4-15.4,32.5-14.5,32.9c0.9,0.4,3.4,0.6,3.4,0.6l0.5,68.7
		c0,0-23.1,68.3-21.4,69.1s4.3,0.3,4.3,0.3l0.2,37.4h2.3v12.8c0,0-10.2,19.8-8.5,20.5c1.7,0.7,5.6,1.7,5.6,1.7l0.3,31.8l-86.3-0.1
		l0.3-89.2c0,0-21-43-22.4-43.3c-1.4-0.3-24.7,45.7-24.7,45.7l0,90h-75.1v-27.4l4.9-0.2c0,0-13.3-33.8-14.6-34
		c-1.4-0.2-18.1,33.2-16.3,33.8c1.9,0.6,5.8,0.4,5.8,0.4l-0.2,51.5l-16.8,21.2l-4.8,0.5l0.4,134.4l-53.9,0.5L126.7,559.9z"/>
</g>

<g>
	<path class='potion' d="M844.9,537.4V428.3h30.7v-22l28.4-40l2.9,0.4l35,35.1v12.6l8.6,6.3v114l-37.5,0l-0.8-27.1
		c0,0-5.5-6.1-12.9-6.6c-8.8-0.7-13.3,7.3-13.3,7.3l-0.4,26.5l-16,0l-14.3,3.8l-10.4,0.1V537.4z"/>
</g>
<g >
	<polygon class="history" points="502.9,281.4 569.4,290.8 569.4,251.1 573.4,251.1 500.9,21 426.3,253.2 430.7,252.5 431.3,290.3 
		439,288.9 441.7,285.6 443.9,288.7 	"/>
</g>
<g >
	<polygon class="defense" points="181.2,541.1 378.3,542 378.3,517 403.4,483.6 424,513.7 425,455 433.1,419.3 431.3,356.7 348.2,356.7 
		336.7,360.5 324.7,381.8 302.4,381.8 297.4,359.8 224.6,359.8 186.1,404.7 181.2,404.7 	"/>
</g>
<g >
	<path class="trap" d="M613.8,603.4l-19.6-4.3L565.5,628l2.9,2.4l0,48.3l39.7,6.1h16.8c0,0-2.4-12.4-2.2-20.6s11.1-16,14.3-16.5
		c3.3-0.5,9.8,1.1,11.7,7.4c1.8,6.3,0.8,27.2-1.6,28.6c-2.5,1.4,13.3,0.5,13.3,0.5l0.4-48.5l3.9,0.7l-15.9-16.2l-0.6-33h4.3
		l-21.8-62.7L608.7,587l5.5,0.1L613.8,603.4z"/>
</g>

<g class="castle-lines">
	<g id="Batiment_1_1_">
		<g id="Batiment">
			<path class="st6" d="M378.9,518.3H424v43.4c0,0.6-0.5,1-1.2,1h-42.7c-0.7,0-1.2-0.4-1.2-1v-15.9V518.3z"/>
			<path class="st6" d="M453.5,397.2h25.7c0.5,0,1,0.3,1.1,0.7l22.1,50.2c0,0.1,0.1,0.2,0.1,0.3v69.8h-76.5l-22.3-34.1
				c-0.4-0.7-1.7-0.7-2.1,0l-24.2,32.7c-0.5,0.7,0.1,1.5,1,1.5h0.5"/>
			<polyline class="st6" points="480,397.2 468.1,455 424,454.7 			"/>
			<line class="st6" x1="468.1" y1="455" x2="468.1" y2="518.3"/>
			<path class="st6" d="M424,514.9v-60.2l14.5-56.7c0.1-0.5,0.6-0.8,1.2-0.8h13.8v-72.8h-22.1v35.4l-16.6,45.8H181.2v132.8
				c0,1.1,1.1,2,2.4,2l195.3,0.6"/>
			<path class="st6" d="M431.4,356.7h-86c-0.2,0-0.3,0-0.5,0.1l-7.9,3c-0.3,0.1-0.5,0.3-0.6,0.5L324.9,381c-0.4,0.7-1.2,1.2-2.2,1.2
				h-18.5c-1.2,0-2.2-0.7-2.4-1.7l-3.4-20.6h-74.3c-0.7,0-1.2-0.4-1.2-1v-26.2h-20.3v51.9"/>
			<polyline class="st6" points="345.1,356.7 345.1,328.1 298,328.1 298.5,359.8 			"/>
			<path class="st6" d="M202.7,332.7h-5c-0.8,0-1.4-0.7-1.1-1.4l15.4-32.4c0.4-0.9,1.9-0.8,2.3,0l13.7,32.4c0.3,0.7-0.3,1.3-1.1,1.3
				h-4.4"/>
			<path class="st6" d="M298,328.1v-58c0-0.1,0-0.3,0.1-0.4l23.1-44.9c0.4-0.8,1.8-0.8,2.2,0l21.6,43.1c0.1,0.1,0.1,0.3,0.1,0.4
				v59.8"/>
			<path class="st6" d="M431.4,324.5h-5.2c-0.8,0-1.4-0.7-1.1-1.3l15.5-36.8c0.4-0.9,1.9-0.9,2.3,0l15.5,36.8
				c0.3,0.7-0.3,1.3-1.1,1.3h-5.7"/>
			<line class="st6" x1="414.8" y1="405.7" x2="414.8" y2="501.2"/>
			<line class="st6" x1="431.4" y1="359.8" x2="431.4" y2="426"/>
			<line class="st6" x1="222.9" y1="359.8" x2="185.4" y2="405.7"/>
		</g>
	</g>
	<g id="Major_tour">
		<g id="Grosse_Tour_2_">
			<polyline class="st6" points="443.9,288.7 502.5,281.4 569.6,290.9 			"/>
			<path class="st6" d="M502.5,518.3h57.7V293.8c0-0.5,0.4-0.9,0.9-1l8.5-1.8v-39.8l-64.7-11.6l-73.6,12.9v37.8l7.1-0.9"/>
			<path class="st6" d="M431.4,252.5l-3.6,0.7c-0.9,0.2-1.7-0.5-1.4-1.2l73-230.7c0.3-1,2-1,2.3,0l71.9,229.1
				c0.2,0.7-0.6,1.4-1.4,1.2l-2.5-0.5"/>
			<path class="st6" d="M447.8,184.2v-68.3c0-1.1,1.1-2,2.4-2H470"/>
			<path class="st6" d="M470.4,112.5l-10.5-30.9c-0.3-0.9-1.9-1-2.3-0.1l-13.2,31.5c-0.3,0.7,0.4,1.4,1.3,1.3l4.4-0.6"/>
		</g>
		<line class="st6" x1="433.7" y1="290" x2="433.7" y2="302.7"/>
	</g>
	<g id="Small_house">
		<g>
			<line class="st6" x1="670.7" y1="464" x2="670.7" y2="540.5"/>
			<path class="st6" d="M663.8,462.9"/>
			<path class="st6" d="M560.2,410.3H576c0.5,0,1,0.3,1.1,0.7l1.9,4.3c0.2,0.4,0.6,0.7,1.1,0.7h6.6c0.7,0,1.2-0.4,1.2-1v-3.6
				c0-0.6,0.5-1,1.2-1h41.3l3.6,8.3c0.2,0.4,0.6,0.7,1.1,0.7h16.1c0.5,0,0.9,0.3,1.1,0.6l20.5,42.3c0.3,0.7-0.3,1.4-1.1,1.4H571.1
				c-0.9,0-1.7-0.4-2.1-1.1l-8.7-14.1"/>
			<path class="st6" d="M573.7,410.3v-14.6c0-0.6,0.1-1.2,0.4-1.8c0.9-1.8,3.1-5.8,6.7-5.8c3.3,0,5.5,3.8,6.4,5.5
				c0.3,0.6,0.4,1.2,0.4,1.8l0.3,15.9"/>
			<polyline class="st6" points="630.4,410.3 630.4,399.7 651.8,399.7 651.8,419.3 			"/>
			<path class="st6" d="M629.7,399.7h-1.8c-0.8,0-1.4-0.7-1.1-1.4l12.7-30.7c0.4-0.9,1.9-0.9,2.3,0l12.8,30.7
				c0.3,0.7-0.3,1.3-1.1,1.3h-1.6"/>
		</g>
		<line class="st6" x1="567.2" y1="518.3" x2="567.2" y2="459.4"/>
	</g>
	<g id="Arc_1_">
		<g id="Arc_3_">
			<path class="st6" d="M885.6,531.6l0-21.9c0-1.1,0.3-2.1,1-3.1c1.5-2.1,4.8-5.3,11.4-5.4c6.8-0.1,11.3,3.1,13.5,5.2
				c1,0.9,1.5,2.1,1.5,3.4l0,21.6"/>
			<path class="st6" d="M951.1,427.6h-16c-1.3,0-2.4-0.9-2.4-2v-19.4c0-0.4-0.1-0.7-0.3-1l-27.5-38.4c-0.5-0.7-1.6-0.6-2.1,0
				l-27,39.4c-0.2,0.3-0.3,0.6-0.3,1l-0.1,18.5c0,1.1-1.1,2-2.4,2h-26.9c-0.7,0-1.2,0.4-1.2,1v102.3"/>
			<path class="st6" d="M847.7,427.6l4.2-4.6c0.3-0.3,0.5-0.8,0.5-1.2v-21.6h-77.4v22.4c0,0.5,0.2,0.9,0.6,1.3l8.3,8
				c0.4,0.4,0.6,0.8,0.6,1.3v68.2c0,1.1-1.1,2-2.4,2H721c-1.3,0-2.4-0.9-2.4-2v-27c0-0.4,0.2-0.8,0.5-1.2l8.4-8.8
				c0.3-0.3,1.3-1.1,1.3-1.6l-0.4-18.7h-64.6"/>
			<path class="st6" d="M727.4,464.4l-0.2,15.3c0,1.7,1.6,3,3.6,3h9.7c2,0,3.6-1.3,3.6-3v-86.1h-16.9v29.4"/>
			<path class="st6" d="M725.9,393.7h-3.4c-0.8,0-1.3-0.6-1.2-1.2l13.2-46.6c0.3-1,2.1-1,2.3,0l13.1,46.6c0.2,0.6-0.4,1.2-1.2,1.2
				h-4.6"/>
			<path class="st6" d="M653.6,422.5l39.2-104.2c0.4-1,2-0.9,2.3,0l38.2,124.5c0.2,0.6-0.4,1.2-1.2,1.2h-3.8"/>
			<path class="st6" d="M775.1,400.2h-2.3c-0.8,0-1.4-0.6-1.2-1.3l40.9-119.9c0.3-1,2-1,2.3,0L855.8,399c0.2,0.6-0.4,1.3-1.2,1.3
				h-2.2"/>
			<path class="st6" d="M855.3,397.5l0.5-97.2c0-0.5,0.1-1,0.3-1.5l13.3-35.5c0.4-1,2-0.9,2.3,0l12,36.1c0.1,0.4,0.2,0.9,0.2,1.3
				V394"/>
			<path class="st6" d="M903.7,366.3l3.1,0.3c0.3,0,0.6,0.2,0.8,0.4l34.9,35.8"/>
			<line class="st6" x1="718.6" y1="501.4" x2="718.6" y2="539.7"/>
			<line class="st6" x1="784.5" y1="501.4" x2="784.5" y2="539"/>
			<line class="st6" x1="719.5" y1="513.7" x2="784.5" y2="513.6"/>
		</g>
		<path class="st6" d="M852.4,412.3l2.4-1.5c0.3-0.2,0.5-0.5,0.5-0.8l0.1-9.6"/>
	</g>
	<g id="Right_towers">
		<g>
			<path class="st6" d="M1023.9,540.5h40.1c0.7,0,1.2-0.4,1.2-1V404h-33.8"/>
			<path class="st6" d="M1065.3,404l-11.7-131.6l-12.1-43.6c-0.3-1-2-1-2.3,0l-13.2,45.9l-3.2,73.9"/>
			<path class="st6" d="M560.2,518.3h28.7L645,515c0.7,0,1.3,0.4,1.3,1l-0.1,23.5c0,0.6,0.5,1,1.2,1l208.3-2.2l14.5-3.8l80.9,0.1
				v-113c0-0.6-0.3-1.2-0.9-1.6l-6.8-4.6c-0.6-0.4-0.9-1-0.9-1.6v-31.4h89v30.6c0,0.5-0.2,1-0.6,1.3l-6.4,6
				c-0.4,0.4-0.6,0.8-0.6,1.3v118.7v18.4c0,0.6-0.5,1-1.2,1h-70.5c-0.7,0-1.2-0.4-1.2-1v-24.3"/>
			<path class="st6" d="M942.5,382.5h-1.1c-0.8,0-1.4-0.6-1.2-1.3l44.3-132.6c0.3-1,2-1,2.3,0l47.7,132.6c0.2,0.6-0.3,1.3-1.2,1.3
				h-1.9"/>
			<path class="st6" d="M378.9,559.9c-1.7,0.2-224-0.7-249.6-0.8c-1.3,0-2.5-0.1-2.5-1.2l0.1-16.5c0-0.6,0.5-1,1.2-1h55.5"/>
			<polyline class="st7" points="424,559.9 587.9,560.2 617.9,556.5 			"/>
			<line class="st6" x1="588.8" y1="518.3" x2="587.9" y2="560.2"/>
			<polyline class="st6" points="645.7,553.1 855.8,551 871.9,546.1 951.1,545.9 			"/>
			<polyline class="st7" points="641.3,553.6 645.7,553.1 646.2,538.1 			"/>
		</g>
	</g>
	<g id="Construc">
		<path class="st6" d="M1065.3,540.5c0,0,13.5,8.1,13.5,9s0.8,13.2,2,14.9c1,1.3,6,5.6,7.9,7.2c0.4,0.4,0.7,0.9,0.7,1.4v23.5
			c0,0.5,0.3,1.1,0.7,1.4l13.6,11c0.7,0.6,0.3,1.5-0.6,1.7l-41.2,7.1l-29.2,2.3c-0.8,0.1-1.6,0.4-2.2,0.9l-17,14.5
			c-0.7,0.6-1.6,0.9-2.6,0.9h-42.3c-0.3,0-0.5,0-0.8-0.1l-40.5-7.6l-27.9-8.1c-1-0.3-2-0.3-2.9-0.1l-31.3,7.7
			c-0.3,0.1-0.6,0.1-0.9,0.1c-4.1,0.1-34.1,0.7-36.4,0.7H772c-0.3,0-0.6,0-0.9,0.1c-3.9,0.8-34.1,6.9-37.8,7.2
			c-3.1,0.2-29.7,2.1-31.6,4.5c-1.7,2.3-11.7,18-13.9,21.3c-0.3,0.4-0.7,0.7-1.2,0.9l-26,8.9"/>
		<path class="st6" d="M567.2,675.8h-40.5c-0.7,0-1.4-0.2-2-0.5c-3.3-1.9-15.3-8.2-24.2-8.7c-10.5-0.5-42,0-42,0l-72-2.5
			c-0.2,0-0.3,0-0.5-0.1l-40.5-8.6c-0.2-0.1-0.5-0.1-0.7-0.1l-46.5,2.5c-0.2,0-0.3,0-0.5,0c-3.4-0.2-41.1-2.5-45-2.5
			c-3.8,0-50,2.2-55.7,2.5c-0.4,0-0.8,0-1.1-0.1c-3.7-0.8-24.5-5.5-30.1-6.5c-5.1-0.9-22.4-7.6-27.8-9.8c-1-0.4-1.8-1.2-2-2.2
			l-6.9-32.3c-0.1-0.6,0-1.1,0.2-1.7l13.4-27.1c0.2-0.4,0.2-0.8,0.1-1.2l-4.2-16.9"/>
	</g>
	<g id="Cotage_1_">
		<g id="Cotage">
			<polyline class="st7" points="648.6,620.3 648.6,587.1 613.8,587.1 614.5,622.3 			"/>
			<path class="st7" d="M613.8,587.1h-3.9c-0.8,0-1.4-0.6-1.2-1.3l20.5-60.7c0.3-1,2-1,2.3,0l20.7,60.7c0.2,0.6-0.4,1.3-1.2,1.3
				h-2.5"/>
			<path class="st6" d="M613.8,603.4l-20.1-3.9c-0.9-0.2-1.9,0.1-2.4,0.7l-26,28c-0.5,0.6-0.2,1.3,0.6,1.5l42.4,11
				c0.3,0.1,0.6,0.1,0.9-0.1c3-1.3,21.3-9.2,28.4-9.7c6.6-0.4,25.5,5.3,25.5,5.3c1.2,0.2,2-1,1.1-1.7l-24.7-22.2
				c-1-0.8-2.8-1.4-4.8,0.5l-25.9,27.4"/>
			<polyline class="st7" points="568.4,630.4 568.4,679 608.7,685.4 608.7,640.8 			"/>
			<path class="st7" d="M608.7,685.4l15.3-0.3c0.8,0,1.3-0.6,1.1-1.2c-0.8-2.8-2.9-10.1-2.7-18.7c0.2-12.3,8.9-17.2,15.9-17.2
				c8,0,12.1,7,11.8,17.1c-0.3,11.6-2.6,14.8-3.6,18.2c-0.2,0.6,0.4,1.2,1.2,1.2h12.7l0.3-48.2"/>
		</g>
	</g>
</g>
</svg>
