
<svg class='chococard' version="1.1" xmlns="http://www.w3.org/2000/svg" xmlns:xlink="http://www.w3.org/1999/xlink" x="0px" y="0px"
	 viewBox="0 0 1000 1000" style="enable-background:new 0 0 1000 1000;" xml:space="preserve">
<style type="text/css">
	.st0{fill:#F28F22;stroke:#F28F23;stroke-width:6;stroke-miterlimit:10;}
	.st1{fill:#22292B;stroke:#F8AD1A;stroke-width:5;stroke-miterlimit:10;}
	.st2{fill:#F28F22;stroke:#4A4A49;stroke-miterlimit:10;}
	.st3{fill:#242B2D;stroke:#F8AD19;stroke-width:5;stroke-miterlimit:10;}
	.st4{fill:#F8AD1A;stroke:#4A4A49;stroke-miterlimit:10;}
	.st5{fill:#22292B;stroke:#F28F22;stroke-width:3;stroke-miterlimit:10;}
	.st6{fill:#F28F22;stroke:#4B4A49;stroke-miterlimit:10;}
	.st7{fill:#22292B;stroke:#F8AD1B;stroke-width:4;stroke-miterlimit:10;}
	.st8{fill:#F8AD1A;}
	.st9{fill:#212220;}
	.st10{fill:#161514;}
	.st11{fill:#261D1B;}
	.st12{fill:#1E1616;}
	.st13{opacity:0.88;fill:#1E1918;}
	.st14{opacity:0.86;fill:#1E1918;}
	.st15{fill:#D1131E;}
	.st16{fill:#B51826;}
	.st17{fill:#1C1B1A;}
	.st18{fill:#222221;}
	.st19{fill:#1E1E1C;}
	.st20{opacity:0.56;fill:#212220;}
	.st21{fill:#1E1E1D;}
	.st22{opacity:0.85;}
	.st23{fill:#D11520;stroke:#EDC441;stroke-width:0.4;stroke-miterlimit:10;}
	.st24{fill:#E2A040;stroke:#EDC441;stroke-width:0.4;stroke-miterlimit:10;}
	.st25{fill:#D18528;stroke:#D18529;stroke-width:0.4;stroke-miterlimit:10;}
	.st26{opacity:0.99;fill:#F28F23;}
	.st27{fill:#FDDAB4;}
	.st28{fill:#7F4612;stroke:#7F4612;stroke-miterlimit:10;}
	.st29{fill:#FFFFFF;}
	.st30{opacity:0.83;}
	.st31{fill:#D11520;}
	.st32{fill:#EDC440;}
	.st33{fill:#EDC440;stroke:#EDC441;stroke-miterlimit:10;}
	.st34{fill:#D11520;stroke:#D11520;stroke-miterlimit:10;}
	.st35{opacity:0.28;fill:#DDC2A8;}
	.st36{opacity:0.42;fill:#EAC8A7;}
	.st37{opacity:0.11;fill:#824716;}
	.st38{opacity:0.26;fill:#8E4D1B;}
	.st39{fill:#E2E1E0;}
	.st40{opacity:0.83;fill:#B71829;}
	.st41{opacity:0.74;fill:#B7192A;}
	.st42{fill:#B71829;}
	.st43{fill:#191818;}
	.st44{opacity:0.85;fill:#BF8651;}
	.st45{opacity:0.53;fill:#3A3A3A;}
	.st46{opacity:0.54;fill:#3A3A3A;}
	.st47{opacity:0.46;fill:#E2E1E0;}
	.st48{fill:#7F4612;}
	.st49{display:none;fill:#26527B;}
	.st50{fill:#391318;stroke:#391318;stroke-width:0.2;stroke-miterlimit:10;}
	.st51{fill:#D11520;stroke:#D11520;stroke-width:0.2;stroke-miterlimit:10;}
	.st52{fill:#F7F5F5;stroke:#F7F5F5;stroke-width:0.2;stroke-miterlimit:10;}
	.st53{display:none;fill:#491313;stroke:#491313;stroke-width:0.2;stroke-miterlimit:10;}
	.st54{display:none;fill:#F7F5F5;stroke:#F7F5F5;stroke-width:0.2;stroke-miterlimit:10;}
	.st55{opacity:0.67;fill:#BFA599;stroke:#BFA599;stroke-width:0.2;stroke-miterlimit:10;}
	.st56{fill:#26527B;}
	.st57{opacity:0.68;fill:#391318;}
</style>
<g id="Contour">
	<polygon class="st0" points="717,798.8 852.2,408.8 513.2,152.4 169.7,405.6 310.5,798.8 	"/>
	<polygon class="st1" points="701.8,782.3 826.9,410.4 513,173 195,407.5 318.1,782.3 	"/>
	<path class="st2" d="M511,187.8c3.4-2.4,21,29.8,69.9,53.5c19.3,9.3,12.2,32.8,36.4,69.9c12.8,19.7,65.6,47.1,74.4,82.3
		s12.8,174.6-4.6,203.2c-7.1,11.8-22.7,116.4-22.7,116.4H358.8c0,0-11.5-92.1-24.9-113.3c-9.7-15.5-9.9-165.6,4.3-207.3
		c14.3-41.8,60.2-61.5,75.1-81.7c29.1-39.4,11.8-59.3,38.6-72.1C500,215.7,500,195.3,511,187.8z"/>
	<path class="st3" d="M512.7,207.2c3.2-2.2,7.9,18.9,53.3,40.9c17.9,8.7,21.3,43,43.7,77.3c11.9,18.3,60.9,43.7,69.1,76.4
		s6.3,164.2-9.8,190.7c-6.6,10.9-15.6,106-15.6,106H369.9c0,0-7.9-83.5-20.3-103.2c-9.1-14.4-12-155.7,1.3-194.4
		s55.9-57.1,69.7-75.8c27-36.6,19.2-64.4,44.1-76.3C509.2,227.5,502.5,214.2,512.7,207.2z"/>
</g>
<g id="Cadre">
	<rect x="377.8" y="721.6" class="st4" width="274.7" height="54.5"/>
	<rect x="385.6" y="729.4" class="st5" width="257" height="38.8"/>
	
		<rect x="232.4" y="387" transform="matrix(0.7071 -0.7071 0.7071 0.7071 -225.7569 326.4318)" class="st6" width="97.5" height="97.5"/>
	
		<rect x="239.1" y="393.7" transform="matrix(0.7071 -0.7071 0.7071 0.7071 -225.7569 326.4318)" class="st7" width="84.1" height="84.1"/>
</g>
<g id="Calque_9">
	<polygon class="st8" points="297.4,583.8 291.1,583.3 287.2,588.2 285.7,582.1 279.8,579.9 285.2,576.6 285.5,570.3 290.3,574.3 
		296.4,572.7 294,578.5 	"/>
	<polygon class="st8" points="317.9,678.1 310.7,665.2 296,663.7 306.1,653 303,638.5 316.3,644.8 329,637.3 327.2,652 338.2,661.8 
		323.8,664.6 	"/>
	<polygon class="st8" points="739.6,511 735.8,504.7 728.5,504.4 733.2,498.8 731.3,491.7 738.1,494.5 744.2,490.5 743.7,497.8 
		749.4,502.4 742.3,504.1 	"/>
	<polygon class="st8" points="728.5,609.5 730.4,622.7 742.4,628.6 730.4,634.5 728.5,647.7 719.2,638.2 706,640.4 712.2,628.6 
		706,616.8 719.2,619 	"/>
	<polygon class="st8" points="683.6,348.9 672.1,338.1 656.8,341.4 663.5,327.2 655.6,313.6 671.2,315.6 681.6,303.9 684.6,319.3 
		699,325.7 685.2,333.2 	"/>
	<polygon class="st8" points="787.6,431.4 780.6,420.2 767.4,419.7 775.9,409.5 772.3,396.8 784.6,401.7 795.6,394.4 794.7,407.6 
		805,415.8 792.2,419 	"/>
	<polygon class="st8" points="393.3,301.1 396.7,290.2 389.7,281.1 401.1,281 407.6,271.6 411.2,282.4 422.2,285.6 413,292.4 
		413.3,303.9 404,297.2 	"/>
	<polygon class="st8" points="310.7,374 305.2,370.5 299.2,373.1 300.8,366.7 296.5,361.8 303,361.4 306.4,355.8 308.8,361.9 
		315.2,363.3 310.1,367.5 	"/>
	<polygon class="st8" points="377.8,341.6 370.2,341.1 365.5,347 363.6,339.7 356.5,337 363,333 363.3,325.4 369.1,330.3 
		376.4,328.3 373.6,335.3 	"/>
	<polygon class="st8" points="341.8,762.1 337,757.7 330.6,759.1 333.3,753.2 330,747.6 336.5,748.3 340.8,743.4 342.1,749.8 
		348.1,752.4 342.4,755.6 	"/>
	<polyline class="st8" points="226.1,493.9 235.6,487.8 236,476.1 245,483.5 256.3,480.2 252,491.1 258.6,500.7 247,500.1 
		239.8,509.3 236.8,498 226.2,494.2 	"/>
	<polyline class="st8" points="326.5,527.1 324.3,530.5 320.7,520.1 310.1,517.1 318.9,510.5 318.4,499.5 326.6,505.2 	"/>
	<polyline class="st8" points="669.4,684.1 677.8,679.1 676.4,691.3 685.6,699.4 673.6,701.8 668.8,713.1 665.5,707.4 	"/>
	<polyline class="st8" points="677.1,779.8 675,778 668.1,779.7 664.6,779.7 662.8,779.7 667.3,769.1 660.2,757.9 673.4,759 
		681.8,748.8 684.8,761.7 697.1,766.5 685.8,773.4 685.4,779.8 	"/>
	<polyline class="st8" points="695.3,410.5 697.4,411.5 709.4,403.6 708.3,417.9 719.5,426.8 705.7,430.2 700.6,443.6 698,439.4 	
		"/>
	<polyline class="st8" points="746,352.4 745.7,353.5 749.1,356.7 744.5,357.4 742.4,361.6 740.3,357.4 735.7,356.7 739,353.5 
		738.3,348.9 742.4,351 743.4,350.5 	"/>
	<polyline class="st8" points="633.1,267 633.4,271 627.7,267.3 621.4,270 623.1,263.4 618.6,258.3 621.3,258.1 	"/>
	<polygon class="st8" points="763.6,551.5 759.3,551.9 757.2,555.7 755.5,551.7 751.2,550.9 754.4,548 753.9,543.7 757.7,545.9 
		761.6,544.1 760.7,548.3 	"/>
</g>
<g id="Drawing_robe">
	<path class="st9" d="M595.3,631.4c2.5-3.8,5.3-4.9,19.4-12c4.5-2.3,9.8-6.9,1.9-5.5s-28.7,9.6-27.3,15.1S595.3,631.4,595.3,631.4z"
		/>
	<path class="st10" d="M535.4,450.5c0,0,7.3,11.8,15.5,11.3c5.6-0.3,20.1-5.9,21.6,1.7c0.5,2.7,5.3,21.9,13.3,39
		c0.7,1.5,2.3,15.9,2.7,17.5c6.8,27.9,8.5,36,15.6,56.7c8.3,24.3,22.7,40.9,15.3,38.5c-6.3-2-22.4,8.5-27,16.6c0,0-6.7,0.1-10.4-7.3
		c-3.3-6.7-7.9-23.5-8.1-24.6c-2.1-12.6-6.6-16.4-10-29.5c-6.6-25.7-10.5-32.7-11.9-45.6c-1.6-14.6-10.6-36.2-10.6-36.2
		S545,506,551.7,533c4.2,17.3,11.5,45.2,16,65.3c2,8.9,15.7,42.1,16.8,53.5c2.5,27.1,9.5,45.2,5.1,43.5c-0.9-0.4-15.3-1.3-36.6-1.2
		c-32.9,0.2-80.9,0.4-107.8,0.3c-12.4,0-20.4,0.9-20.4,0.9c0.1-30.5,3.9-43.2,15.1-66.6c9.7-20.1,21.4-70.7,27-86.8
		c9.9-30.6,8.8-54.8,9-51.5c0.2,2.6-4.4,19.3-10.7,40.4c-4.8,16.2-10.7,35-16.1,51.8c-5.2,16-10.1,30.3-13.5,39.1
		c-2.2,5.8-8.1,15.1-11.9,10.2c-5.5-6.9-12.9-10.1-26-18.5c-5.3-3.4,2.1-20.9,12.6-39.3c13.1-22.8,17.4-54,23.3-74.9
		c5.6-19.6,6-34.2,6.6-35.9c1.8-5.1,11.6-1.3,20.3-3.3c8.2-1.9,18.9-11.9,18.9-11.9"/>
	<path class="st11" d="M516,682.8c0,0,32.2-3.9,34.6-4.7c2.4-0.8-0.2,16-0.2,16s-32.8,1.9-33,0.3C517.3,692.9,515.1,681.8,516,682.8
		z"/>
	<path class="st12" d="M492.7,579c0,0-0.9,0.7-1.6,2c-0.7,1.3-2.5,7.3-2.5,8.7c0,1.1,12.7,3.1,16.9,3.9c1.3,0.2,2.5,0.3,3.8,0.2
		l20.7-1.9c0,0-1.6-12.9-2.8-12.5c-1,0.4-8.7,2-12.9,2.3c-1,0.1-10.9-0.2-11.8-0.3L492.7,579z"/>
	<path class="st11" d="M508.5,683c0,0-35.1-1.5-37.5-2.2c-2.4-0.8,0,14.2,0,14.2s34.2,0.4,34.4-1.2C505.7,692.3,509.4,682,508.5,683
		z"/>
	<path class="st13" d="M492.1,589.2c0,0,13.5,2.8,19.2,2.7c5.6-0.1,18-1.3,18-1.3s18.2,49.7,18.9,51.9c0.6,2.2,5.2,28.3,5.2,35
		s-84.1,6.8-87.2,3.8c-3.1-2.9,6.5-47.2,9.8-51.3C479.3,625.9,489.7,588,492.1,589.2z"/>
	<path class="st14" d="M493.5,581.6c0,0,12.6,2.8,18.3,2c5.7-0.8,13.5-1,13.5-1s-5.9-24.3-5.6-28.7c0.3-4.3-1.9-19.9-1.9-22.9
		s-3.7-35.6-3.7-35.6l-0.7-8.2c0,0-1.7-2.6-2-2.6c-0.4,0.1-4.9,1.7-5,2.6s-1.3,15.8-2.1,20.1c-0.8,4.3-1,25.9-2.3,28.2
		c-1.3,2.3-3.2,16.1-3.8,19.8S492.3,581.3,493.5,581.6z"/>
	<path class="st15" d="M481.8,445.9c0,0-16.3,8-23.8,10.5c-7.5,2.6-5.6-0.1-13.5,5c5.3,0.2,12.5,1.4,28.4,7.9
		c11,4.5,25.4,2,35.3,16.7c2.1,3.1,0.5-8.4,0.5-8.4L481.8,445.9z"/>
	<path class="st15" d="M535.1,450.2c0,0,12.6,6.4,25.7,7.9c10.7,1.2,6.3,0.5,15,5.2c-4.4-0.2-15.7-2.5-31.1,4.2
		c-14.9,6.5-27.1,9.5-33.7,18.5c-1.7,2.3,0-7.4,0-7.4l5.1-13.9L535.1,450.2z"/>
	<path class="st16" d="M513.6,486.6c0.4,0.4,0.7,1,0.7,1.6c0.4,6.2,2.9,41.3,6,49.7c3.4,9.2,23.3,65.5,26,71.1
		c8.6,17.1,11.8,22.3,15.4,30.7c2.5,5.8,5.2,14.4,8.2,23.3c1.8,9,4.4,31.5,4.4,31.5h-2.3c0,0-2.8-26.1-4.6-33
		c-0.9-3.6-4.5-12-8.2-20.8c-6.2-15.1-14.8-29.1-15.1-30.5c-0.5-2.3-25.4-70.7-25.9-72.7c-2.3-8.5-4.4-48.9-5.2-50.1
		C511.4,484.9,511.1,484.1,513.6,486.6z"/>
	<path class="st16" d="M506.7,487c-0.4,0.4-0.7,1-0.7,1.6c-0.4,6.2-2.9,41.3-6,49.7c-3.4,9.2-25.7,65.8-27.9,71.5
		c-7,17.7-10.7,26.3-14.3,34.7c-2.5,5.8-4.8,11.3-7.8,20.1c-1.8,9-4,30.2-4,30.2h1.5c0,0,2.3-25.2,4.9-31.3
		c0.9-3.6,3.3-9.6,6.9-18.5c6.2-15.1,14.6-33.8,14.9-35.3c0.5-2.3,27.4-70.1,28-72.1c2.3-8.5,4.4-48.9,5.2-50.1
		C508.9,485.2,509.2,484.4,506.7,487z"/>
	<path class="st17" d="M509,481.6c0,0,0.4,0.4,0.4,0.8c0,0.4,0.3-2.9-0.2-3.4c-0.5-0.6-4.9-6.4-5.5-7c-0.5-0.6-5.9-7-5.9-7
		s-0.5-0.2,0.3,1.1c0.7,1.2,5.1,7.4,5.9,8.4c0.9,1.1,3.4,4.1,3.7,4.9C508.1,480.1,509,481.6,509,481.6z"/>
	<path class="st18" d="M448.2,458.7c0,0-10.9,2.5-7.9,2.7c1.9,0.1,6.5,1.4,9.5,3.2c3.2,1.9,17.3,3,24.6,5.6c8.4,3,17.9,3.9,25.2,8.3
		c6.7,4.1,8.1,6.9,8.9,8.5c0.8,1.6,0.8-1.7,0.8-1.7s-7-9.6-15.7-13.1c-4.5-1.8-14.4-6-23.2-9.5c-8.2-3.3-15.4-6-16.4-5.8
		C452.1,457.3,448.2,458.7,448.2,458.7z"/>
	<path class="st18" d="M566,463.9c0.2-0.1,0.3-0.1,0.5-0.1c3.6-0.3,6.8-0.4,8.5-0.4c2.7,0.1-1.5-3.8-7.6-4.5
		c-4.3-0.5-19.1,3.7-24.5,5.7c-4.8,1.8-24.3,10-27.1,12.5c-2.8,2.6-6.2,7.7-5.6,9.4c0.3,0.9,5.1-5.7,8.2-7s11.3-6.1,16.9-7.6
		c5.6-1.5,13.3-3.2,18.8-5.1C559.3,465.1,563.6,464.9,566,463.9z"/>
	<path class="st19" d="M511,478.6c0,0-0.8,3.3-0.7,3.7s0.5,0,0.5,0s1-3.1,1.4-3.9s2.7-5.8,3.1-6.2c0.4-0.5,2.4-4.6,2.6-4.7
		s0.5-1.7-0.7-0.2c-1.2,1.5-6.4,10.9-6.4,11C510.8,478.4,511,478.6,511,478.6z"/>
	<path class="st18" d="M508.5,482.9c0,0-0.1,1.4,0.4,1.6c0.5,0.3,1.4,0.3,1.7-0.3c0.3-0.6,0.5-2.1,0.2-2.3c-0.3-0.3-1.6-0.4-2,0
		C508.5,482.3,508.5,482.9,508.5,482.9z"/>
	<path class="st20" d="M397.8,610.2c0,0-0.9,2.4,1.1,3.8c3.5,2.3,10.8,6.3,13.3,7.7c2.5,1.4,10.8,7.1,13.3,10.9
		c1.3,1.9,5.3,0.4,5.3-2.3c0-2.2-1-4.2-8.3-9.3c-6.8-4.8-11.5-8.4-16.3-10.2C402.1,609.2,399.1,609.1,397.8,610.2z"/>
	<path class="st18" d="M447.4,695h22.4c0,0-5.4-23.6-4.4-31.3c1-7.7,9.8-35.7,11.6-40.1s20.5-54.9,22.2-64.7c1.7-9.9,2.8-21,2.8-21
		l-20,51.1l-11.8,29.3l-15.9,39c-1.8,5-2.1,5.9-2.3,6.8c-0.8,3.6-2.8,13.7-3.5,20.3C447.6,692.5,447.4,695,447.4,695z"/>
	<path class="st18" d="M571.5,695h-20.1c0,0,3.8-18.8,2.6-33.1c-1.5-17-12.4-35.9-14.3-40.3c-1.9-4.4-18.4-52.7-20.1-62.6
		c-1.7-9.9-2.2-23.3-2.2-23.3l19.4,53.4l11.8,29.3l17.3,38.5c1.8,5,2,6.8,2.2,7.8c0.8,3.6,1.5,13.3,2.3,19.8
		C571.3,692.5,571.5,695,571.5,695z"/>
	<circle class="st21" cx="510.2" cy="495.4" r="1.2"/>
	<circle class="st21" cx="510.2" cy="509.7" r="1.2"/>
	<circle class="st21" cx="510.6" cy="524" r="1.2"/>
	<circle class="st21" cx="510.6" cy="540.9" r="1.2"/>
	<circle class="st21" cx="510.6" cy="560.5" r="1.2"/>
</g>
<g id="Plastron" class="st22">
	<path class="st23" d="M526.1,486.2l5.8-1c-0.1,1.1-0.2,2-0.2,2l1.6,0.9l0.9,5.5l-2.3,3.5l-4.9-1.8l-1.7-6l1.6-1.3L526.1,486.2z"/>
	<path class="st24" d="M530,487.8c0.2,0.1,0.3,0.1,0.4,0.3c0.1,0.2,0,0.4,0.1,0.6c0.1,0.3,0.4,0.4,0.5,0.7c0.1,0.1,0.1,0.3,0.3,0.3
		c0.1,0,0.2,0,0.3-0.2c0.1-0.1,0.1-0.2,0.1-0.3c0-0.3,0-0.9,0-1.2c0.2-0.1,0.3,0.1,0.5,0.2c-0.1,0.7,0,1.4,0.2,2.1
		c0.1,0.3,0.1,0.7-0.1,0.9c0.2,0,0.4,0.1,0.6,0.1c0.1,0,0.3-0.2,0.4-0.1s0.1,0.4,0,0.5c-0.3,0-0.6,0.1-0.9,0.1c-0.1,0-0.1,0-0.2,0
		c-0.1,0-0.1,0.2-0.2,0.3c0,0.3-0.1,0.5,0,0.8c0.1,0.1,0.1,0.3,0.1,0.5c0,0.1,0.3,0.5,0.2,0.7c0,0.4,0.3,0.8-0.3,0.8
		c-0.1,0.1-0.2,0-0.3-0.1c-0.5-0.5-0.9-0.9-1.4-1.4c0,0.7,0.4,2.1-0.9,1.9c-0.1-0.7-0.2-1.4-0.4-2.1c0-0.1-0.1-0.2-0.1-0.2
		c-0.1-0.1-0.3-0.1-0.5,0s-0.2,0.3-0.4,0.3c-0.2,0.1-0.4,0.1-0.6,0.1c-0.2-0.1-0.4-0.2-0.6-0.4c-0.5-0.5-0.9-1.7-0.6-1.8
		c0.3-0.1,0.2,0.5,0.3,0.8c0.1,0.1,0.3,0.5,0.4,0.6c0.3,0.2,0.5,0.3,0.8,0.3c0.1,0,0.4-0.2,0.5-0.2c0.1-0.1,0.1-0.3,0.2-0.4
		c0.2-0.3,0.5-0.4,0.8-0.5c0.2,0,0.5,0,0.7-0.1c0.1-0.1,0.2-0.2,0.2-0.4c0.1-0.5,0-1.1-0.4-1.4c-0.1-0.1-0.3-0.2-0.5-0.3
		c-0.3-0.2-0.7-0.4-1-0.6c-0.2-0.1-0.3-0.2-0.4-0.4c0-0.1,0.1-0.3,0.2-0.4C528.7,487.7,529.5,487.6,530,487.8z"/>
	<path class="st25" d="M530.2,488.3c0.2-0.1,0.4-0.2,0.5-0.4c0.1-0.2,0.2-0.3,0-0.4c-0.1-0.2-0.5-0.3-0.7-0.4
		c-0.3-0.2-1-0.1-1.3-0.1c-0.5,0-0.6,0.4-0.9,0.8c-0.1,0.2-0.2,0.4-0.2,0.6c0,0.1,0,0.2,0,0.3c0,0.3,0.2,0.5,0.4,0.7
		c0.1,0.1,0.2,0.2,0.3,0.3c0.2,0.1,0.4,0.1,0.6,0.1c0.6,0,1.2-0.1,1.8,0.1c0-0.1,0-0.2-0.1-0.3c-0.1-0.1-0.2-0.1-0.3-0.2
		c-0.3-0.2-0.6-0.4-0.9-0.6c-0.1-0.1-0.3-0.2-0.4-0.4s-0.2-0.2-0.2-0.4c0.2,0,0.4-0.3,0.6-0.3c0.1,0,0.2-0.1,0.3,0
		c0.1,0.1,0.2,0.2,0.2,0.4C530,488.3,530.2,488.1,530.2,488.3z"/>
	<path class="st26" d="M531.6,492.7c0.7-0.1,1.5-0.4,2.2-0.6c0.1,0.6,0.2,0.9,0.2,1.4c-0.2,0.1-0.3,0.3-0.5,0.4
		c-0.2,0.1-0.4,0.1-0.6,0.2c-0.3,0.1-0.5,0.2-0.8,0.2c-0.2,0.1-0.6,0.1-0.8,0.1c-0.2,0-0.4,0.1-0.6,0.1c-1.2,0.2-2.2,0.3-3.5,0.6
		c-0.1-0.2-0.1-0.5-0.2-0.7c-0.1-0.3-0.2-0.7-0.2-0.7s0.4-0.2,0.7-0.2c0.2-0.1,1.3-0.3,2.2-0.5C530.2,492.9,531.1,492.8,531.6,492.7
		z"/>
</g>
<g id="Drawing">
	<path class="st27" d="M552.1,378.4c0,12.3-6.1,22.9-12.1,31.7c-7.7,11.3-16.9,19.4-30,19.4c-12.6,0-22.2-8.6-29.9-19.2
		c-6.5-9-12.2-18.9-12.2-31.8c0-28.2,18.8-51.1,42.1-51.1S552.1,350.2,552.1,378.4z"/>
	<path class="st27" d="M471.9,362.7c0,0-3.5-4.2-6.5,0.1c-3.5,4.8-3.2,22.4-0.9,24.6c2.3,2.3,8.4-0.4,8.4-0.4"/>
	<path class="st28" d="M530.9,333.7c2.7,0.4,17.7-12.7,13.1-18.7c-5.5-7-47.4-11.7-66.4,0.3c-14.6,9.2-18.5,19.6-18.7,27.7
		c-0.2,10,2.4,10.8,9,29.9c1.1,3.3,4.2-9.9,10-17c17.7-21.5,44.2-18.1,51-20.3c3.2-1.1,12.4,5.7,19.8,21.9
		c3.4,7.4,1.9,14.9,1.9,14.9s9-11.9,11.1-32.5c1.9-19.3-11.4-20.1-16.8-22.2"/>
	<path class="st27" d="M547.7,386.3c0,2.1,6.4,2.3,8.2-0.8c1.6-2.7,2-20.1-3-23.1c-5-3.1-6.6,4.2-6.6,4.2"/>
	<path class="st27" d="M528.2,422.7v16.2c0,0-7,10-17.6,10.1c-10.6,0-18.3-11.8-18.3-11.8v-13.9"/>
	<path class="st29" d="M503.4,447.4c0,0-6.7,15.1-6.7,16c0.1,0.9,13.3,16.9,13.3,16.9l9.7-16.4l-4.3-16.4H503.4z"/>
	<path class="st29" d="M492,435.8c0,0-12.8,9.7-11.8,14.9s16.8,15,16.8,15s0-0.6,0.3-1.5c1.5-4.5,6.4-17.7,8.5-18.6
		c0.8-0.3,1.3-0.1,0.6-0.5C505.6,444.7,496.8,445.8,492,435.8z"/>
	<path class="st29" d="M528.2,436.3c0,0,10.2,11.6,8.2,16.5c-2.1,4.9-17.9,14.4-17.9,14.4s0-2.3-0.2-3.7c-0.8-5.9-3.2-17.9-5.2-18.2
		C511.3,445,520.6,446.9,528.2,436.3z"/>
	<path class="st29" d="M502.4,447c0,0,1.8,1.9,6.5,2.3c4.7,0.4,7.9-1.6,7.9-1.6l-0.9-2.7c0,0-3.7,1.8-6.3,1.6s-5-1.5-5.6-1.6
		C503.4,444.9,502.4,447,502.4,447z"/>
</g>
<g id="Tie" class="st30">
	<polygon class="st31" points="508,477.8 509.1,479.2 510,480.2 510.9,478.6 511.6,477.5 	"/>
	<path class="st32" d="M506.4,475.9c0,0,0.3,0.4,0.3,0.4l1.2,1.4l0.3,0.3c0,0,1.2,0.1,1.7,0.1s1.6-0.2,1.6-0.2l0.7-1.3l0.6-1.1
		c0,0-1.6-0.1-2-0.1C510.4,475.4,506.4,475.9,506.4,475.9z"/>
	<path class="st31" d="M505.6,474.9l0.3,0.5c0.1,0.2,0.6,0.7,0.8,0.9l0.5,0.5c0.3,0.2,0.6,0.3,1,0.3l3.7-0.7c0.4-0.1,0.9-0.7,1.1-1
		l1.1-1.8c0,0,0.7-1.1,0.7-1.1l0.6-1l0.1-0.5l-1.4,0.4L505.6,474.9z"/>
	<path class="st33" d="M514.4,468.2c0,0,0.5-0.7,0.6,0.9c0.1,1.9-0.1,2.2-1.5,3.7c-1.4,1.5-6.2,2.9-7,2.1c-1.3-1.3-1-2.8-0.9-2.1
		c0,0-0.3-0.1,0.2-0.5C506.2,471.9,514.4,468.2,514.4,468.2z"/>
	<path class="st34" d="M514.7,466.2c0,0,0.4,0.4,0.3,1.9c-0.1,1.4-0.3,1.7-1.3,2.6c-0.8,0.8-7.4,3.6-7.8,3.2c-0.7-0.9-0.7-2.5-0.7-3
		C505.3,470,514.7,466.2,514.7,466.2z"/>
	<path class="st33" d="M514.2,463.5c0,0,0.5-0.7,0.6,0.9c0.1,1.9,0.5,3.1-1.2,4.1c-1.8,1-6.6,2.7-7.7,2.8c-1.1,0.1-0.7-3-0.7-3
		s-0.1-0.4,0.4-0.8S514.2,463.5,514.2,463.5z"/>
	<path class="st34" d="M514.1,460.6c-2.1,1.2-8.8,5.1-9,5.2c-0.2,0.1,0,1.3,0,2s0.4,0.9,1.3,1.1c0.6,0.1,6.7-3.1,7.4-3.9
		c0.9-1,1-1.4,1-2.8c0-0.4,0-0.7,0-1C514.5,461.1,514.3,460.9,514.1,460.6z"/>
	<path class="st33" d="M513,457.7c-2.3,1.3-6.9,4.1-7.6,4.9c-1.1,1.1-0.7,1.6-0.4,3.8c0.1,0.4,2.4-0.7,4.6-1.9
		c2-1.1,3.7-2.9,4.6-3.7C513.5,459.9,513,458.8,513,457.7z"/>
	<path class="st34" d="M513.2,455.4c-0.1-1,1.5-2.5,1.5-2.5s-2.2,1.9-2.5,2.2s-5.1,5.8-6.7,5.8c-1.1,0-1.4,0.2-0.9,3.3
		c0.1,0.5,2.1-0.6,4.8-2.6c2.1-1.5,3-2.4,3.6-3.1C512.8,457.5,512.9,456.4,513.2,455.4z"/>
	<path class="st33" d="M512.9,453c-0.7-0.3-1.3,0.4-1.3,0.4s-1.1,0.6-2.6,2.2c-0.8,0.8-1.9,1.4-2.8,2c-0.1,1.3-0.6,2.6-1.6,3.4
		c0.2,0.1,0.6-0.2,1.5-0.6c3.5-1.8,5.4-4.1,6.6-5.8C513.5,453.4,513.6,453.3,512.9,453z"/>
	<path class="st34" d="M507.6,452.8c0,0.4-0.3,1.7-0.8,2.5c-0.2,0.3-0.5,0.5-0.8,0.7c0.2,0.9,0.1,1.8-0.1,2.7c0.1,0,0.1-0.1,0.2-0.1
		c1.2-0.9,4.6-4.5,4.6-5C510.7,453,507.6,452.3,507.6,452.8z"/>
	<path class="st33" d="M506,455.8c0.7-0.9,1.6-2.1,1.6-2.3c0.1-0.5-2.8-1.2-3-1c0,0,1,1.1,1,2.2C505.7,455,505.9,455.4,506,455.8z"
		/>
	<path class="st34" d="M504.7,450.8c0,0,9.5,1.2,9.9,1.1c0.5-0.1,0.4,1.1,0.2,1.2s-10.4,0-10.4-0.4
		C504.5,452.2,504.2,450.9,504.7,450.8z"/>
	<path class="st33" d="M505.6,448.9l8.6,1.3c0,0,0.2,0.2,0.5,1.1c0.3,0.9-10.2-0.9-10.2-0.9l0.5-1
		C505.5,449.2,505.3,448.8,505.6,448.9z"/>
</g>
<g id="Calque_6">
	<path class="st35" d="M492.4,423.3c0,0,7.1,3,17.6,4.4c9.7-1.7,18.2-4.5,18.2-4.5l0,4.7c0,0-6.1,2.3-18,3.5c-0.2,0-0.4,0-0.5,0
		c-10.5-1.3-17.3-3.2-17.3-3.2V423.3z"/>
	<path class="st36" d="M506.4,445.7c0,0,0,0,0-0.1c0-0.1,0,0,0.1-0.1c-0.2,0-0.4,0.1-0.4,0.1L506.4,445.7z"/>
	<path class="st37" d="M469.2,373.3c0,0,2.4-6.3,5.4-11.6s10.1-12.5,14-14.8c3.8-2.3,10.1-6.5,17.9-7.6c3.2-0.5,5.3-1.1,8.3-1.5
		c4.4-0.6,9.2-0.9,10.6-1.1c2.4-0.3,4.5-1,4.5-0.7c0,0.2-4.3,1.7-10.3,3.1c-5.6,1.3-13.1,2-17.4,3.3c-7.1,2.3-10.7,4.8-15.1,8.4
		c-2.3,1.9-5.6,5.3-12.1,13.8c-1.4,1.9-3.3,5.3-4,6.4C470.1,372,469.2,373.3,469.2,373.3z"/>
	<path class="st38" d="M545,317.4c0,0-8.1,6-10.8,11.6c-2.8,5.6-4.7,8-4.5,5.7s11.6-19.8,13.7-19.9C545.5,314.8,545,317.4,545,317.4
		z"/>
	<path class="st36" d="M513.7,445.8c0,0-0.2-0.3-0.4-0.5c-0.2-0.1-0.3-0.1-0.4-0.1c-0.1,0,0.3,0,0.4,0.3c0.1,0.3,0.2,0.4,0.2,0.4
		L513.7,445.8z"/>
	<path class="st39" d="M498.6,466.1c0-0.1,0.8-2.7,1.6-4.9c0.9-2.6,2.4-6.2,3.4-9.1c1-2.9,0.6-2.1,1-3.2c0.2-0.4,0.4-1.4,1-2.1
		c0.4-0.5,0.6-0.9,0.7-1c-0.2-0.1-0.3-0.1-0.3-0.1s-0.1,0-0.3,0.2c-0.3,0.3-0.5,0.5-0.8,0.9c-0.1,0.2-1.3,2.4-2.1,4.7
		c-0.8,2.3-1.8,4.2-2.7,6.5c-1.5,3.7-2.8,6.4-2.9,6.6C497.7,464.8,498.6,466.1,498.6,466.1z"/>
	<path class="st39" d="M517.6,467.4c-0.5-0.6-0.3-4.5-1-8.9c-0.4-2.6-1-5.6-1.5-7.5c-0.4-1.6-0.6-2.4-0.7-2.5
		c-0.1-0.4-0.2-0.7-0.4-1.2c-0.1-0.3-0.5-1.1-0.6-1.2c0.2-0.1,0.4-0.1,0.4-0.1s0.1,0.2,0.3,0.6c0.1,0.3,0.4,0.8,0.5,1.3
		c0.1,0.2,0.6,1.5,1.3,3.5c1.1,3.4,1.3,4.8,1.8,7.8c0.5,3,0.7,6.8,0.7,6.8C518.2,466.2,517.6,467.4,517.6,467.4z"/>
	<path class="st40" d="M497,465.7c0,0,1.2,0.1,1.3,0.4c0.1,0.3,0.3,0,0.3,0s-1.2-1.6-1.3-1.6S497,465.6,497,465.7z"/>
	<path class="st41" d="M517.9,467.3l0.6-0.2l0-1.2c0,0-1,1.4-0.8,1.4S517.9,467.3,517.9,467.3z"/>
	<path class="st42" d="M455.8,457.1l12.5,4.6l16.9,6.9c0,0,10.2,4.3,10.8,4.6s7.9,5.6,10,8.1s2.9,3.4,2.9,3.4s-1.8-3.3-2.6-4.1
		c-0.8-0.8-8.1-6.6-9.9-7.8c-1.9-1.2-11.6-5-11.8-5c-0.2,0-16.3-6.6-16.3-6.6l-11.4-4.3L455.8,457.1z"/>
	<path class="st42" d="M566.7,458.8c0,0-9,1.4-13.5,2.7c-4.5,1.3-16.9,5.8-18.4,6.5c-1.4,0.6-15.8,6.8-17.7,8.3
		c-1.9,1.5-6.6,8.4-6.6,8.4s1.8-3.6,2.3-4.5c0.5-0.9,3.4-4.2,4.3-4.6c0.8-0.5,17.5-8.2,17.5-8.2l18.1-6.4l11.9-2.5L566.7,458.8z"/>
	<path class="st43" d="M438.3,631.8l7.6-15.4l4.2-14.8c0,0,12.3-43.5,15.1-49.2c2.9-5.7,8.9-43.7,9.5-44.3c0.6-0.5,1-17.6,1-17.6
		s1.9,12.7,1.1,17.3c-0.7,4.6-7.9,41.5-9.8,47.3s-13.8,45.3-14.6,46.6c-0.9,1.4-9,29.5-9.7,34.9c-0.7,5.4-0.3,7.8-0.9,6.5
		c-0.5-1.4-5.1-3.9-5.1-3.9L438.3,631.8z"/>
	<path class="st43" d="M578.1,642.8c0,0,3.3,4.5,3.4,4.8c0.9,3.2,4.2,23.6,4.8,25.2c0.6,1.7,4.5,21.9,3.8,22.2
		c-0.6,0.3-6.1-0.4-7.5-0.4c-1.4,0-8.2,0-8.2,0s-3.1-23.7-3.9-28.9c-0.8-5.2-6.5-20.6-7.5-23c-1-2.4-5.6-12.2-5.9-13.8
		c-0.3-1.6,16.5,3.5,16.5,6.9C573.6,637.1,578.1,642.8,578.1,642.8z"/>
	<path class="st43" d="M507.9,485.8c0,0-3.2-3.9-4.9-5.1s-7.2-4.5-11-5.6c-3.8-1.1-14.8-4.7-17.3-4.8c-2.5-0.2-10.3-2.9-13.2-3
		c-2.9-0.1-8.8-0.6-10.6-1.8c-1.8-1.2-8.5-4.3-9.2-3.8c-0.6,0.4-1.5,1.4-1.5,1.4s1.2-0.4,1.9-0.4c0.7,0.1,7.4,3.1,8.4,3.5
		c1,0.4,10.7,2.3,11.3,2.1s11.4,1.9,12.6,2.6s15.7,4.5,16.6,4.8s11.1,5.3,11.6,6.1c0.5,0.8,4.5,4.6,4.5,4.6L507.9,485.8z"/>
	<path class="st43" d="M572.5,463.6c0,0-2.7-0.3-7.4,0.7c-4.8,1-15.3,3.7-19.7,5.2c-2.2,0.8-6.7,1.7-11.2,3.1
		c-4.6,1.5-9.2,3.4-11.1,4.8c-1.6,1.1-3.8,1.7-5.7,3c-2.7,1.8-5,4.3-4.9,4.6c0.1,0.5,0.3,0.1,0.3,0.1s8.9-6.4,11.3-7.4
		c2.4-1,20.4-6.9,21.7-7.4c1.3-0.5,18.3-5.2,19.7-5.3c1.4-0.2,7.4,0,7.4,0L572.5,463.6z"/>
	<path class="st44" d="M504.1,453.1c-0.2,0.1,2.1,0.4,3.9,0.5c1.7,0,4.4,0.1,5.4,0.1c1.3,0,1.9-0.2,1.9-0.2l-1,0.7c0,0-0.9,0-2.5,0
		c-1.6,0.1-3.5,0.1-4.8-0.1c-1.2-0.1-1.7-0.3-2.2-0.4L504.1,453.1z"/>
	<polygon class="st45" points="450,674.5 452.1,664.1 460.4,642.6 471.5,615.3 488.6,572.4 501.7,538.9 498.2,550.6 489.8,572.9 
		472.9,616 461.3,643 453.3,664.2 451.6,674.5 450,695 447.4,695 	"/>
	<polygon class="st46" points="571.5,695 570.2,682.8 569.2,671.4 567.1,660.3 560.7,644.1 552.1,626.1 544.9,609.1 536.3,587.7 
		525.5,557.8 518.9,539.7 524.1,557.1 535.6,588.6 543.6,610 550.9,626.8 559.4,644.7 566.2,661.2 568.1,671.5 569.3,682.7 
		570.5,695.1 	"/>
	<path class="st47" d="M504.6,447.7c-0.2,0.1,2.1,0.7,3.8,0.7c1.7,0,3.8,0,4.8-0.2c1-0.2,1.2-0.4,1.2-0.4l0.3,0.7
		c0,0-1.4,0.3-2.9,0.4c-1.6,0.1-3.5,0.1-4.8-0.1c-1.2-0.2-3-0.6-3-0.6L504.6,447.7z"/>
</g>
<g id="Visage">
	<path class="st48" d="M484.5,359.9c0.2-0.3,0.4-0.5,0.7-0.7c3.7-3,8.6-3.9,11.7-2.4c3.1,1.5,2.7,2.7,2.7,2.7s-4.3-0.5-7.3,0
		c-3,0.5-5.3,0.9-8.3,3C481.4,364.1,483.6,361,484.5,359.9z"/>
	<path class="st48" d="M536.3,359.9c-0.2-0.3-0.4-0.5-0.7-0.7c-3.7-3-8.6-3.9-11.7-2.4c-3.1,1.5-2.7,2.7-2.7,2.7s4.3-0.5,7.3,0
		c3,0.5,5.3,0.9,8.3,3C539.4,364.1,537.2,361,536.3,359.9z"/>
	<path class="st49" d="M483.2,370.6c1.1-2.7,3.3-5.5,7.6-5.7s6.2,2.7,8,5c1.3,1.6-3.7-1.9-8-1.7S482.8,371.6,483.2,370.6z"/>
	<path class="st49" d="M520.4,370.3c1.2-2.7,3.5-5.4,7.8-5.4c4.3,0,6.1,3,7.8,5.4c1.2,1.7-3.6-2.1-7.9-2.1
		C523.8,368.3,519.9,371.3,520.4,370.3z"/>
	<path class="st50" d="M523.5,401c1.6,0,2.9,1.5,2.8,3.3c-0.2,2.3-0.8,4.6-3.3,5.9c-3.5,1.9-8.4,4.1-13.5,4.1
		c-5.2,0-10.7-1.9-14.2-3.8c-2.5-1.4-3-3.7-3.1-6.1c-0.1-1.7,1.2-3.1,2.7-3.1L523.5,401z"/>
	<path class="st51" d="M498,411.7c0,0,1.1-2,3.2-2.5s7.2,0,8.1,1.4c0,0,1.9-0.9,5.3-1.4c3.4-0.5,5.1,0.1,5.4,1.3s0,1.2,0,1.2
		s-2.9,1.4-5.2,1.9c-2.2,0.5-3.6,0.8-6.9,0.6c-1.5-0.1-3.4-0.4-6.5-1.2C499.5,412.5,499.1,412.1,498,411.7z"/>
	<path class="st52" d="M523.1,401c0.4,3.1-4.6,3.8-4.6,3.8s-18,0.3-20.6-0.2c-2.6-0.5-3-3.3-3-3.3L523.1,401z"/>
	<path class="st53" d="M490.6,400.1c-0.1-2,2.5-3.2,4.6-2.2c3.6,1.7,9.2,3.9,14.8,3.7c6.2-0.3,13.4-2.7,17.3-4.3
		c1.3-0.5,2.8,0.4,2.6,1.5c-0.7,3.8-2.4,11.4-5.8,13.9c-6.9,5.2-8.8,4.3-15.6,4.4c-5.2,0.1-7.9-1.8-11.1-3.8
		C492.9,410.4,490.8,404.3,490.6,400.1z"/>
	<path class="st54" d="M492.2,398c0.8-0.4,1.9-0.4,2.7,0c0.2,0.1,0.7,0.4,1.1,0.6c2.6,1,7,3.4,13.3,3.2c5.8-0.1,10.8-1.6,13.5-2.5
		c1.3-0.4,3.5-1.5,5-1.9c0.9-0.2,2.2,0.6,2,1.4c-0.3,0.8-1.1,5.6-1.5,6.1c-0.4,0.5-10.2,4-18,4c-8.8,0-17.5-1.6-18-2.7
		c-0.5-1.1-1.6-5.2-1.4-6.3C491,399,491.3,398.4,492.2,398z"/>
	<path class="st54" d="M493.3,408.3c0,0,1,2.1,2.4,3.4c0.7,0.6,1.5,1.3,3.1,2.3c1.9,1.2,4.6,2.4,6.2,2.6c3.4,0.6,9.3,0.4,11,0
		c2.3-0.5,5.1-1.9,7.3-3.5c0.8-0.6,2.4-2.5,3.2-4c0.8-1.3,1.1-2.9,1.1-2.9s-8.7,3.6-14.3,3.9c-4.3,0.2-11.1-0.1-14.1-0.5
		C496.3,409.2,493.3,408.3,493.3,408.3z"/>
	<path class="st55" d="M518,388.7c0,2.7-3.6,4.9-8,4.9s-8-2.2-8-4.9"/>
	<ellipse class="st56" cx="492.2" cy="374" rx="2.8" ry="6.4"/>
	<ellipse class="st56" cx="529.1" cy="374" rx="2.8" ry="6.4"/>
	<ellipse class="st52" cx="491.4" cy="370.1" rx="0.6" ry="0.8"/>
	<ellipse class="st52" cx="527.8" cy="370.6" rx="0.6" ry="0.8"/>
	<path class="st57" d="M554.5,366.3c0,0-0.3,0.6,0.1,0.9c0.2,0.2,1.5,0.1,1.7-0.1c0.3-0.3,0.2-0.7,0-0.8c-0.3-0.1-1-0.2-0.8-0.2
		l-0.2-0.3c0,0,1.2-0.4,1.6,0.2c0.5,0.7,0.2,1.5-0.2,1.7c-0.4,0.2-1.1,0.3-1.9,0.2c-0.5,0-0.8,0-1-0.6c-0.3-0.6,0.3-1,0.4-1.1
		C555.1,365.9,554.5,366.3,554.5,366.3z"/>
	<path class="st57" d="M555,368.3c0,0-0.3,0.6,0.1,0.9c0.2,0.2,1.5,0.1,1.7-0.1c0.3-0.3,0.2-0.7,0-0.8c-0.3-0.1-1-0.2-0.8-0.2
		l-0.2-0.3c0,0,1.2-0.4,1.6,0.2c0.5,0.7,0.2,1.5-0.2,1.7c-0.4,0.2-1.1,0.3-1.9,0.2c-0.5,0-0.8,0-1-0.6c-0.3-0.6,0.3-1,0.4-1.1
		C555.5,367.9,555,368.3,555,368.3z"/>
</g>
</svg>
