
<svg  id="Times" x="0px" y="0px"
	 viewBox="0 0 100 100"  >


<ellipse className="circle"  cx="50.2" cy="50.9" rx="43.6" ry="43.8"/>


<path className="cross" d="M37.7,31.2l11.4,11.4c0.4,0.4,1,0.4,1.4,0L62.2,31c0.8-0.8,2-0.8,2.8,0l5,5c0.8,0.8,0.8,2,0,2.8
	L58.8,50.1c-0.4,0.4-0.4,1,0,1.4L70,62.7c0.8,0.8,0.8,2,0,2.8l-5.1,5.1c-0.8,0.8-2,0.8-2.8,0L50.7,59.3c-0.4-0.4-1-0.4-1.4,0
	L37.9,70.7c-0.8,0.8-2,0.8-2.8,0l-4.9-4.9c-0.8-0.8-0.8-2,0-2.8l11.4-11.4c0.4-0.4,0.4-1,0-1.4L30.1,38.7c-0.8-0.8-0.8-2.1,0-2.9
	l4.8-4.6C35.7,30.5,36.9,30.5,37.7,31.2z"/>
	
</svg>
