<?xml version="1.0" encoding="utf-8"?>
<!-- Generator: Adobe Illustrator 23.0.0, SVG Export Plug-In . SVG Version: 6.00 Build 0)  -->
<svg version="1.1" id="Wand" xmlns="http://www.w3.org/2000/svg" xmlns:xlink="http://www.w3.org/1999/xlink" x="0px" y="0px"
	 viewBox="0 0 250 500" style="enable-background:new 0 0 250 500;" xml:space="preserve">
<style type="text/css">
	.st0{fill:#22292B;stroke:#22292B;stroke-width:4;stroke-miterlimit:10;}
</style>
<path class="st0" d="M91.5,470.6l4.1,0.9c3.6,0.8,7.3,0.8,10.8,0l3.8-0.8c2.7-0.6,4.4-3.3,3.8-6l-4-17.7c-0.4-1.8-0.1-3.6,0.8-5.2
	c2.2-3.8,6.1-5.8,6.1-14c0-8.5-6.3-14.4-8.3-15.7c-0.9-0.6-0.9-1.9-0.9-2.9v-15.3c0-0.7,0.2-1.4,0.5-2.1c0,0,6.7-5.6,6.7-14.7
	c0-8.2-6.4-14.3-6.4-14.3c-0.3-0.7-0.4-1.4-0.4-2.1l0.3-26.7c0-0.5,0.1-1.1,0.3-1.5c0,0,4-6.4,4-15.2c0-6.1-4.4-13.3-4.4-13.3
	c-0.3-0.7-0.5-1.4-0.5-2.1l-0.7-50.7c0-0.6,0.1-1.2,0.3-1.8c0,0,5.8-8.8,5.8-15.5c0-6.8-6.3-12.9-6.3-12.9c-0.3-0.7-0.5-1.4-0.5-2.2
	v-44.8c0-0.7,0.1-1.3,0.4-1.9c0,0,6.1-8.3,6.1-14.7c0-8.3-6.9-14.6-6.9-14.6c-0.3-0.7-0.5-1.5-0.5-2.2l-0.4-50.6
	c0-0.7,0.1-1.4,0.4-2c0,0,5.4-8.5,5.4-14.1c0-6.3-5.3-12.9-5.3-12.9c-0.3-0.6-0.5-1.3-0.5-2l-0.2-24.4c0-1.3-0.5-2.5-1.3-3.4l-5,0.1
	c-1.1,1-1.5,2-1.5,3.4L97,58.1c0,0.8-0.2,1.6-0.5,2.3c0,0-5.7,6.6-5.7,13.5c0,5.3,5.3,13.2,5.3,13.2c0.4,0.7,0.6,1.6,0.6,2.4
	l-0.3,51.3c0,0.8-0.2,1.5-0.5,2.2c0,0-7,5.3-7,13.9c0,6.8,6.1,14.4,6.1,14.4c0.3,0.6,0.4,1.3,0.4,1.9l0,45.1c0,0.6-0.1,1.2-0.3,1.7
	c0,0-5.7,6.8-5.7,14.6c0,6.2,5.3,14.2,5.3,14.2c0.3,0.6,0.4,1.3,0.4,2L93.7,302c0,0.5-0.1,1-0.3,1.5c0,0-4.9,7.3-4.9,14.3
	c0,7.8,4.5,15.2,4.5,15.2c0.1,0.5,0.2,1,0.2,1.5l-0.6,26.6c0,0.6-0.1,1.1-0.3,1.7c0,0-5.8,4.1-5.8,15.2c0,9,7.2,13.4,7.2,13.4
	c0.4,0.8,0.6,1.7,0.6,2.5l-0.6,16.3c0,0.9-0.3,1.9-0.9,2.6c-2.1,3.1-7.7,4.4-7.7,15.2c0,9.4,3.9,11,5.9,14c0.9,1.5,1.1,3.3,0.7,4.9
	l-4,17.5C87,467.3,88.7,470,91.5,470.6z"/>
</svg>
