
<svg version="1.1" class="wand" xmlns="http://www.w3.org/2000/svg" xmlns:xlink="http://www.w3.org/1999/xlink" x="0px" y="0px"
	 viewBox="0 0 40 200" style="enable-background:new 0 0 40 200;" xml:space="preserve">

<path class="wandItem" d="M15.4,196.3l2,0.4c1.7,0.4,3.5,0.4,5.2,0l1.8-0.4c1.3-0.3,2.1-1.5,1.8-2.6l-1.9-7.8c-0.2-0.8,0-1.6,0.4-2.3
	c1.1-1.7,2.9-2.6,2.9-6.2c0-3.7-3-6.3-4-6.9c-0.4-0.3-0.4-0.8-0.4-1.3v-6.7c0-0.3,0.1-0.6,0.2-0.9c0,0,3.2-2.5,3.2-6.5
	c0-3.6-3.1-6.3-3.1-6.3c-0.1-0.3-0.2-0.6-0.2-0.9l0.1-11.7c0-0.2,0-0.5,0.1-0.7c0,0,1.9-2.8,1.9-6.7c0-2.7-2.1-5.9-2.1-5.9
	c-0.1-0.3-0.2-0.6-0.2-0.9l-0.3-22.3c0-0.3,0-0.5,0.1-0.8c0,0,2.8-3.9,2.8-6.8c0-3-3-5.7-3-5.7c-0.1-0.3-0.2-0.6-0.2-1V65.8
	c0-0.3,0-0.6,0.2-0.8c0,0,2.9-3.7,2.9-6.5c0-3.7-3.3-6.4-3.3-6.4c-0.1-0.3-0.2-0.7-0.2-1L22,28.8c0-0.3,0-0.6,0.2-0.9
	c0,0,2.6-3.7,2.6-6.2c0-2.8-2.6-5.7-2.6-5.7c-0.1-0.3-0.2-0.6-0.2-0.9L21.9,4.5c0-0.6-0.2-1.1-0.6-1.5l-2.4,0
	c-0.5,0.4-0.7,0.9-0.7,1.5l0,10.3c0,0.4-0.1,0.7-0.2,1c0,0-2.8,2.9-2.8,5.9c0,2.3,2.6,5.8,2.6,5.8c0.2,0.3,0.3,0.7,0.3,1.1
	l-0.1,22.6c0,0.4-0.1,0.7-0.2,1c0,0-3.4,2.3-3.4,6.1c0,3,2.9,6.3,2.9,6.3c0.1,0.3,0.2,0.6,0.2,0.8v19.8c0,0.3,0,0.5-0.1,0.7
	c0,0-2.8,3-2.8,6.4c0,2.7,2.6,6.2,2.6,6.2c0.1,0.3,0.2,0.6,0.2,0.9l-0.7,22.5c0,0.2,0,0.4-0.1,0.7c0,0-2.4,3.2-2.4,6.3
	c0,3.4,2.2,6.7,2.2,6.7c0,0.2,0.1,0.4,0.1,0.7l-0.3,11.7c0,0.3,0,0.5-0.1,0.7c0,0-2.8,1.8-2.8,6.7c0,4,3.5,5.9,3.5,5.9
	c0.2,0.4,0.3,0.7,0.3,1.1l-0.3,7.2c0,0.4-0.1,0.8-0.4,1.1c-1,1.4-3.7,1.9-3.7,6.7c0,4.1,1.9,4.8,2.9,6.2c0.4,0.7,0.5,1.5,0.3,2.2
	l-1.9,7.7C13.2,194.8,14.1,196,15.4,196.3z"/>
</svg>
