
<svg version="1.1" id="Calque_2" xmlns="http://www.w3.org/2000/svg" xmlns:xlink="http://www.w3.org/1999/xlink" x="0px" y="0px"
	 viewBox="0 0 100 100" style="enable-background:new 0 0 100 100;" xml:space="preserve">
<style type="text/css">
	.st0{fill:#FF9115;}
</style>
<g>
	<path class="st0" d="M16.7,33.9l17.9,48.9C22.1,76.8,13.5,64,13.5,49.1C13.5,43.7,14.6,38.5,16.7,33.9z M76.2,47.2
		c0-4.6-1.7-7.8-3.1-10.3c-1.9-3.1-3.7-5.7-3.7-8.8c0-3.5,2.6-6.7,6.3-6.7c0.2,0,0.3,0,0.5,0c-6.7-6.1-15.5-9.8-25.3-9.8
		c-13.1,0-24.6,6.7-31.3,16.9c0.9,0,1.7,0.1,2.4,0.1c3.9,0,10-0.5,10-0.5c2-0.1,2.3,2.9,0.2,3.1c0,0-2,0.2-4.3,0.4l13.6,40.6
		l8.2-24.6l-5.8-16c-2-0.1-3.9-0.4-3.9-0.4c-2-0.1-1.8-3.2,0.2-3.1c0,0,6.2,0.5,9.9,0.5c3.9,0,10-0.5,10-0.5c2-0.1,2.3,2.9,0.2,3.1
		c0,0-2,0.2-4.3,0.4l13.5,40.3l3.7-12.5C75,54.2,76.2,50.4,76.2,47.2L76.2,47.2z M51.6,52.4L40.3,85.1c3.4,1,6.9,1.5,10.6,1.5
		c4.4,0,8.5-0.8,12.4-2.1c-0.1-0.2-0.2-0.3-0.3-0.5L51.6,52.4z M83.8,31.2c0.2,1.2,0.2,2.5,0.2,3.9c0,3.8-0.7,8.1-2.9,13.4
		L69.7,81.5C80.9,75,88.4,62.9,88.4,49.1C88.4,42.6,86.7,36.5,83.8,31.2L83.8,31.2z M94.6,49.1c0,24.1-19.6,43.7-43.7,43.7
		c-24.1,0-43.7-19.6-43.7-43.7C7.3,25,26.8,5.5,50.9,5.5C75,5.5,94.6,25,94.6,49.1z M92.6,49.1c0-23-18.7-41.7-41.7-41.7
		c-23,0-41.7,18.7-41.7,41.7S28,90.8,50.9,90.8C73.9,90.8,92.6,72.1,92.6,49.1z"/>
</g>
</svg>
